<svg width="24" height="24" viewBox="0 0 24 24" fill="none" xmlns="http://www.w3.org/2000/svg">
<g id="Alkitu">
<g id="Group 48546">
<path id="Vector" d="M11.0187 14.1124C11.0731 13.949 11.226 13.8388 11.3982 13.8388H13.4705L12.2733 10.272C12.1512 9.90812 11.6365 9.90839 11.5148 10.2724L9.02161 17.7269C8.96705 17.89 8.81429 18 8.64226 18H6.58486C6.30348 18 6.11005 17.7172 6.21208 17.455L10.181 7.25495C10.2408 7.10124 10.3888 7 10.5537 7H13.2657C13.4309 7 13.579 7.10145 13.6387 7.25539L16.7888 15.3796C16.8905 15.6418 16.6971 15.9242 16.4159 15.9242H10.97C10.697 15.9242 10.5042 15.6568 10.5905 15.3978L11.0187 14.1124Z" stroke="#27272A" stroke-width="0.9"/>
<path id="Vector_2" d="M17 16L17.7106 17.4211C17.8435 17.6871 17.6501 18 17.3528 18H14.8442C14.6633 18 14.5048 17.8785 14.4579 17.7038L14.1354 16.5038C14.0671 16.2497 14.2586 16 14.5217 16H17Z" stroke="#27272A" stroke-width="0.9"/>
</g>
</g>
</svg>
