<svg width="24" height="24" viewBox="0 0 24 24" fill="none" xmlns="http://www.w3.org/2000/svg">
<g id="behance">
<path id="Vector" fill-rule="evenodd" clip-rule="evenodd" d="M6 8H8.6C9.12157 7.99989 9.63112 8.14788 10.0624 8.42472C10.4938 8.70157 10.8269 9.09448 11.0186 9.5524C11.2103 10.0103 11.2517 10.5121 11.1373 10.9925C11.023 11.4729 10.7583 11.9097 10.3775 12.2463C10.9473 12.4485 11.4239 12.833 11.7243 13.3328C12.0247 13.8326 12.1299 14.4161 12.0215 14.9815C11.9132 15.547 11.5981 16.0587 11.1313 16.4275C10.6645 16.7963 10.0754 16.9988 9.46667 16.9998H6V8ZM6.86667 12.909V16.1816H9.46667C9.92638 16.1816 10.3673 16.0092 10.6923 15.7024C11.0174 15.3955 11.2 14.9793 11.2 14.5453C11.2 14.1113 11.0174 13.6951 10.6923 13.3882C10.3673 13.0814 9.92638 12.909 9.46667 12.909H6.86667ZM6.86667 12.0908H8.6C9.05971 12.0908 9.50059 11.9184 9.82565 11.6115C10.1507 11.3047 10.3333 10.8885 10.3333 10.4545C10.3333 10.0205 10.1507 9.6043 9.82565 9.29743C9.50059 8.99056 9.05971 8.81816 8.6 8.81816H6.86667V12.0908ZM18.1333 9.22724C18.1333 9.45317 17.9502 9.63632 17.7243 9.63632H14.2091C13.9832 9.63632 13.8 9.45317 13.8 9.22724C13.8 9.00131 13.9832 8.81816 14.2091 8.81816H17.7243C17.9502 8.81816 18.1333 9.00131 18.1333 9.22724ZM12.9333 14.1362C12.9333 13.3768 13.2529 12.6484 13.8218 12.1114C14.3906 11.5743 15.1622 11.2726 15.9667 11.2726C16.7712 11.2726 17.5427 11.5743 18.1116 12.1114C18.6804 12.6484 19 13.3768 19 14.1362V14.5453H13.8433C13.9274 14.9348 14.1298 15.2927 14.4258 15.5753C14.7219 15.858 15.0987 16.053 15.5103 16.1367C15.9219 16.2204 16.3505 16.189 16.7435 16.0464C17.0066 15.951 17.2462 15.8085 17.4498 15.628C17.6185 15.4784 17.8693 15.4337 18.0555 15.5609C18.2565 15.6981 18.3026 15.9784 18.1269 16.1467C17.7886 16.4706 17.3718 16.7154 16.9097 16.8581C16.3002 17.0463 15.6432 17.0473 15.033 16.861C14.4229 16.6746 13.891 16.3106 13.5137 15.821C13.1365 15.3314 12.9333 14.7416 12.9333 14.1362ZM13.8433 13.7271H18.09C17.9905 13.2648 17.7248 12.8491 17.3378 12.5505C16.9509 12.2519 16.4665 12.0888 15.9667 12.0888C15.4669 12.0888 14.9825 12.2519 14.5955 12.5505C14.2085 12.8491 13.9428 13.2648 13.8433 13.7271Z" fill="#27272A"/>
</g>
</svg>
