<svg width="24" height="24" viewBox="0 0 24 24" fill="none" xmlns="http://www.w3.org/2000/svg">
<g id="codesandbox">
<g id="Group 48548">
<path id="Union" fill-rule="evenodd" clip-rule="evenodd" d="M12.2519 3.56811C12.0963 3.4773 11.9037 3.4773 11.7481 3.56811L5.74806 7.06811C5.59446 7.15772 5.5 7.32217 5.5 7.5V10.9887C5.49984 10.996 5.49984 11.0034 5.5 11.0107V14.5C5.5 14.6778 5.59446 14.8423 5.74806 14.9319L11.7481 18.4319C11.9037 18.5227 12.0963 18.5227 12.2519 18.4319L18.2519 14.9319C18.4055 14.8423 18.5 14.6778 18.5 14.5V11.0097C18.5001 11.0031 18.5001 10.9964 18.5 10.9897V7.5C18.5 7.32217 18.4055 7.15772 18.2519 7.06811L12.2519 3.56811ZM17.5 10.6894V8.37052L12.5 11.2872V17.1295L14.5 15.9628V12.4816C14.5 12.2913 14.608 12.1175 14.7786 12.0333L17.5 10.6894ZM15.5 15.3795L17.5 14.2128V11.8046L15.5 12.7923V15.3795ZM6.5 11.8047V14.2128L8.49999 15.3795V12.7923L6.5 11.8047ZM9.49999 15.9628L11.5 17.1295V11.2872L6.5 8.37052V10.6894L9.22138 12.0333C9.39199 12.1175 9.49999 12.2913 9.49999 12.4816V15.9628ZM9.79089 5.8675L12 4.57885L14.2091 5.86749L12 7.09478L9.79089 5.8675ZM8.78644 6.45343L6.99232 7.5L12 10.4211L17.0077 7.5L15.2136 6.45342L12.2428 8.10384C12.0918 8.18773 11.9082 8.18773 11.7572 8.10384L8.78644 6.45343Z" fill="#27272A"/>
</g>
</g>
</svg>
