<svg width="24" height="24" viewBox="0 0 24 24" fill="none" xmlns="http://www.w3.org/2000/svg">
<g id="dribble">
<path id="Vector" d="M9.71914 6.44914C12.5871 9.91286 14.0871 13.2394 14.6083 17.4051M6.02829 11.4171C11.1583 11.2989 14.0871 10.4889 16.2883 7.80343M7.88571 16.3663C10.6466 12.1646 14.0323 11.5234 17.9614 12.6866M18 12C18 11.2121 17.8448 10.4319 17.5433 9.7039C17.2417 8.97595 16.7998 8.31451 16.2426 7.75736C15.6855 7.20021 15.0241 6.75825 14.2961 6.45672C13.5681 6.15519 12.7879 6 12 6C11.2121 6 10.4319 6.15519 9.7039 6.45672C8.97595 6.75825 8.31451 7.20021 7.75736 7.75736C7.20021 8.31451 6.75825 8.97595 6.45672 9.7039C6.15519 10.4319 6 11.2121 6 12C6 13.5913 6.63214 15.1174 7.75736 16.2426C8.88258 17.3679 10.4087 18 12 18C13.5913 18 15.1174 17.3679 16.2426 16.2426C17.3679 15.1174 18 13.5913 18 12Z" stroke="#27272A" stroke-linecap="round" stroke-linejoin="round"/>
</g>
</svg>
