<svg width="24" height="24" viewBox="0 0 24 24" fill="none" xmlns="http://www.w3.org/2000/svg">
<g id="figma">
<g id="Group 48543">
<path id="Vector" d="M7.66666 8.16667C7.66666 7.59203 7.89493 7.04093 8.30126 6.6346C8.70759 6.22827 9.25869 6 9.83332 6H12V10.3333H9.83332C9.25869 10.3333 8.70759 10.1051 8.30126 9.69873C7.89493 9.2924 7.66666 8.7413 7.66666 8.16667Z" stroke="#27272A" stroke-linecap="round" stroke-linejoin="round"/>
<path id="Vector_2" d="M12 6H14.1667C14.4512 6 14.7329 6.05604 14.9958 6.16493C15.2587 6.27381 15.4975 6.43341 15.6987 6.6346C15.8999 6.8358 16.0595 7.07465 16.1684 7.33752C16.2773 7.60039 16.3333 7.88214 16.3333 8.16667C16.3333 8.4512 16.2773 8.73294 16.1684 8.99581C16.0595 9.25869 15.8999 9.49754 15.6987 9.69873C15.4975 9.89992 15.2587 10.0595 14.9958 10.1684C14.7329 10.2773 14.4512 10.3333 14.1667 10.3333H12V6Z" stroke="#27272A" stroke-linecap="round" stroke-linejoin="round"/>
<path id="Vector_3" d="M12 12.4997C12 12.2151 12.056 11.9334 12.1649 11.6705C12.2738 11.4077 12.4334 11.1688 12.6346 10.9676C12.8358 10.7664 13.0746 10.6068 13.3375 10.4979C13.6004 10.3891 13.8821 10.333 14.1667 10.333C14.4512 10.333 14.7329 10.3891 14.9958 10.4979C15.2587 10.6068 15.4975 10.7664 15.6987 10.9676C15.8999 11.1688 16.0595 11.4077 16.1684 11.6705C16.2773 11.9334 16.3333 12.2151 16.3333 12.4997C16.3333 12.7842 16.2773 13.0659 16.1684 13.3288C16.0595 13.5917 15.8999 13.8305 15.6987 14.0317C15.4975 14.2329 15.2587 14.3925 14.9958 14.5014C14.7329 14.6103 14.4512 14.6663 14.1667 14.6663C13.8821 14.6663 13.6004 14.6103 13.3375 14.5014C13.0746 14.3925 12.8358 14.2329 12.6346 14.0317C12.4334 13.8305 12.2738 13.5917 12.1649 13.3288C12.056 13.0659 12 12.7842 12 12.4997V12.4997Z" stroke="#27272A" stroke-linecap="round" stroke-linejoin="round"/>
<path id="Vector_4" d="M7.66666 16.8337C7.66666 16.259 7.89493 15.7079 8.30126 15.3016C8.70759 14.8953 9.25869 14.667 9.83332 14.667H12V16.8337C12 17.4083 11.7717 17.9594 11.3654 18.3657C10.9591 18.7721 10.408 19.0003 9.83332 19.0003C9.25869 19.0003 8.70759 18.7721 8.30126 18.3657C7.89493 17.9594 7.66666 17.4083 7.66666 16.8337Z" stroke="#27272A" stroke-linecap="round" stroke-linejoin="round"/>
<path id="Vector_5" d="M7.66666 12.4997C7.66666 11.925 7.89493 11.3739 8.30126 10.9676C8.70759 10.5613 9.25869 10.333 9.83332 10.333H12V14.6663H9.83332C9.25869 14.6663 8.70759 14.4381 8.30126 14.0317C7.89493 13.6254 7.66666 13.0743 7.66666 12.4997Z" stroke="#27272A" stroke-linecap="round" stroke-linejoin="round"/>
</g>
</g>
</svg>
