<svg width="24" height="24" viewBox="0 0 24 24" fill="none" xmlns="http://www.w3.org/2000/svg">
<g id="github">
<g id="Group">
<path id="Vector" d="M14.5953 18V16.2803C14.6185 15.9946 14.5786 15.7074 14.4783 15.4377C14.3779 15.1681 14.2195 14.9222 14.0134 14.7164C15.9572 14.5067 18 13.7936 18 10.522C17.9998 9.68543 17.6674 8.88094 17.0714 8.27503C17.3536 7.54311 17.3337 6.7341 17.0157 6.01605C17.0157 6.01605 16.2853 5.80634 14.5953 6.90287C13.1764 6.53066 11.6808 6.53066 10.2619 6.90287C8.57195 5.80634 7.84148 6.01605 7.84148 6.01605C7.52352 6.7341 7.50357 7.54311 7.78576 8.27503C7.18537 8.88543 6.85257 9.6972 6.85719 10.54C6.85719 13.7876 8.90004 14.5007 10.8438 14.7344C10.6402 14.9381 10.4831 15.181 10.3828 15.4474C10.2826 15.7137 10.2414 15.9975 10.2619 16.2803V18" stroke="#27272A" stroke-width="1.3" stroke-linecap="round" stroke-linejoin="round"/>
<path id="Vector_2" d="M10.2857 16.9577C8.44898 17.4536 6.91837 16.9577 6 15.4287" stroke="#27272A" stroke-width="1.3" stroke-linecap="round" stroke-linejoin="round"/>
</g>
</g>
</svg>
