<svg width="24" height="24" viewBox="0 0 24 24" fill="none" xmlns="http://www.w3.org/2000/svg">
<g id="gitlab">
<path id="Vector" d="M18.7562 13.4116L11.9869 18L5.21759 13.4116C5.12684 13.3494 5.05953 13.262 5.02528 13.1619C4.99103 13.0618 4.9916 12.9542 5.02691 12.8544L5.80236 10.6136L7.35327 6.16155C7.36831 6.12527 7.39225 6.09279 7.42318 6.0667C7.47355 6.02379 7.5393 6 7.60751 6C7.67573 6 7.74148 6.02379 7.79184 6.0667C7.8245 6.09614 7.84857 6.13287 7.86176 6.1734L9.41267 10.6136H14.5612L16.1121 6.16155C16.1271 6.12527 16.1511 6.09279 16.182 6.0667C16.2324 6.02379 16.2981 6 16.3663 6C16.4345 6 16.5003 6.02379 16.5506 6.0667C16.5833 6.09614 16.6074 6.13287 16.6206 6.1734L18.1715 10.6254L18.9787 12.8544C19.0108 12.9572 19.0065 13.067 18.9664 13.1674C18.9264 13.2678 18.8526 13.3534 18.7562 13.4116V13.4116Z" stroke="#27272A" stroke-linecap="round" stroke-linejoin="round"/>
</g>
</svg>
