<svg xmlns="http://www.w3.org/2000/svg" width="24" height="24" fill="none">
  <g fill="#27272A">
    <path
      d="M7.656 8.5a.5.5 0 0 1 .248.06L12 10.765l4.096-2.205a.5.5 0 0 1 .737.44v6.333a.5.5 0 0 1-1 0V9.837l-3.596 1.936a.5.5 0 0 1-.474 0L8.467 10a.498.498 0 0 1-.3-.126v5.46a.5.5 0 0 1-1 0V9a.5.5 0 0 1 .489-.5Z" />
    <path fill-rule="evenodd"
      d="M8.46 6.481c2.355-.21 4.725-.21 7.08 0l1.011.09a2.353 2.353 0 0 1 2.12 2.004 23.675 23.675 0 0 1 0 6.85 2.353 2.353 0 0 1-2.119 2.003l-1.011.09c-2.356.211-4.726.211-7.082 0l-1.01-.09a2.353 2.353 0 0 1-2.12-2.004 23.672 23.672 0 0 1 0-6.849 2.353 2.353 0 0 1 2.119-2.004l1.012-.09Zm6.992.996a38.756 38.756 0 0 0-6.903 0l-1.011.09a1.353 1.353 0 0 0-1.22 1.153 22.671 22.671 0 0 0 0 6.56 1.353 1.353 0 0 0 1.22 1.152l1.011.09c2.296.206 4.607.206 6.903 0l1.011-.09a1.353 1.353 0 0 0 1.22-1.152 22.673 22.673 0 0 0 0-6.56 1.353 1.353 0 0 0-1.22-1.152l-1.011-.09Z"
      clip-rule="evenodd" />
  </g>
</svg>