<svg width="24" height="24" viewBox="0 0 24 24" fill="none" xmlns="http://www.w3.org/2000/svg">
<g id="instagram">
<path id="instagram_2" fill-rule="evenodd" clip-rule="evenodd" d="M9.22133 6.87109C7.95579 6.87109 6.92987 7.89702 6.92987 9.16255V14.7455C6.92987 16.011 7.95579 17.0369 9.22133 17.0369H14.8042C16.0698 17.0369 17.0957 16.011 17.0957 14.7455V9.16255C17.0957 7.89702 16.0698 6.87109 14.8042 6.87109H9.22133ZM5.92987 9.16255C5.92987 7.34473 7.40351 5.87109 9.22133 5.87109H14.8042C16.6221 5.87109 18.0957 7.34473 18.0957 9.16255V14.7455C18.0957 16.5633 16.6221 18.0369 14.8042 18.0369H9.22133C7.40351 18.0369 5.92987 16.5633 5.92987 14.7455V9.16255ZM12.2914 10.2157C11.9308 10.1622 11.5625 10.2238 11.2389 10.3917C10.9153 10.5596 10.6529 10.8253 10.489 11.1509C10.3251 11.4765 10.2681 11.8456 10.326 12.2055C10.3839 12.5654 10.5539 12.8979 10.8116 13.1557C11.0694 13.4134 11.4019 13.5834 11.7618 13.6413C12.1217 13.6992 12.4908 13.6421 12.8164 13.4782C13.142 13.3144 13.4077 13.052 13.5756 12.7284C13.7435 12.4048 13.8051 12.0365 13.7516 11.6759C13.697 11.3081 13.5256 10.9675 13.2627 10.7046C12.9998 10.4416 12.6592 10.2702 12.2914 10.2157ZM10.7783 9.5041C11.2886 9.23933 11.8694 9.14219 12.4381 9.22652C13.0181 9.31254 13.5552 9.58283 13.9698 9.99748C14.3845 10.4121 14.6548 10.9492 14.7408 11.5292C14.8251 12.0979 14.728 12.6787 14.4632 13.1889C14.1984 13.6992 13.7795 14.113 13.266 14.3715C12.7525 14.6299 12.1705 14.7199 11.6029 14.6286C11.0354 14.5372 10.511 14.2693 10.1045 13.8628C9.69802 13.4563 9.43004 12.9319 9.33871 12.3643C9.24738 11.7968 9.33734 11.2148 9.5958 10.7013C9.85427 10.1878 10.2681 9.76888 10.7783 9.5041ZM15.0837 8.38403C14.8075 8.38403 14.5837 8.60788 14.5837 8.88403C14.5837 9.16017 14.8075 9.38403 15.0837 9.38403H15.0902C15.3663 9.38403 15.5902 9.16017 15.5902 8.88403C15.5902 8.60788 15.3663 8.38403 15.0902 8.38403H15.0837Z" fill="#27272A"/>
</g>
</svg>
