<svg width="24" height="24" viewBox="0 0 24 24" fill="none" xmlns="http://www.w3.org/2000/svg">
<g id="linkedin">
<g id="Group">
<path id="Vector" d="M8.53865 15.3333V10.6667M11.4 15V13.0502M11.4 13.0502V10.8004M11.4 13.0502C11.4 10.8004 15 10.8004 15 13.0502C15 13.0502 15 14.2386 15 15M8.53865 9.00684V9.00024M18 9.33333V14.6667C18 15.5507 17.6488 16.3986 17.0237 17.0237C16.3986 17.6488 15.5507 18 14.6667 18H9.33333C8.44928 18 7.60143 17.6488 6.97631 17.0237C6.35119 16.3986 6 15.5507 6 14.6667V9.33333C6 8.44928 6.35119 7.60143 6.97631 6.97631C7.60143 6.35119 8.44928 6 9.33333 6H14.6667C15.5507 6 16.3986 6.35119 17.0237 6.97631C17.6488 7.60143 18 8.44928 18 9.33333Z" stroke="#27272A" stroke-width="1.1" stroke-linecap="round" stroke-linejoin="round"/>
</g>
</g>
</svg>
