<svg width="24" height="24" viewBox="0 0 24 24" fill="none" xmlns="http://www.w3.org/2000/svg">
<g id="medium">
<path id="Vector" d="M8.11111 16C8.93623 16 9.72755 15.6313 10.311 14.9749C10.8944 14.3185 11.2222 13.4283 11.2222 12.5C11.2222 11.5717 10.8944 10.6815 10.311 10.0251C9.72755 9.36875 8.93623 9 8.11111 9C7.28599 9 6.49467 9.36875 5.91122 10.0251C5.32778 10.6815 5 11.5717 5 12.5C5 13.4283 5.32778 14.3185 5.91122 14.9749C6.49467 15.6313 7.28599 16 8.11111 16ZM14.3333 16C15.1928 16 15.8889 14.4338 15.8889 12.5C15.8889 10.5662 15.1928 9 14.3333 9C13.4739 9 12.7778 10.5662 12.7778 12.5C12.7778 14.4338 13.4739 16 14.3333 16ZM18.2222 16C18.6516 16 19 14.4338 19 12.5C19 10.5662 18.6516 9 18.2222 9C17.7929 9 17.4444 10.5662 17.4444 12.5C17.4444 14.4338 17.7929 16 18.2222 16Z" stroke="#27272A" stroke-linecap="round" stroke-linejoin="round"/>
</g>
</svg>
