<svg width="24" height="24" viewBox="0 0 24 24" fill="none" xmlns="http://www.w3.org/2000/svg">
<g id="spatial">
<g id="Group 48544">
<path id="Vector" d="M10.4692 7.07892C9.99312 6.94071 9.87049 6.32339 10.2576 6.01373C10.413 5.8894 10.6192 5.84844 10.8103 5.90393L15.5927 7.29238C16.8707 7.66343 17.75 8.83423 17.75 10.1651V15.5049C17.75 15.6824 17.6693 15.8503 17.5307 15.9612C17.1482 16.2672 16.5815 15.9948 16.5815 15.5049V10.6085C16.5815 9.56874 15.8946 8.65405 14.8961 8.36417L10.4692 7.07892Z" fill="#27272A"/>
<path id="Vector_2" d="M8.48075 7.77825C8.2852 7.71959 8.07332 7.7607 7.9139 7.88823C7.52485 8.19947 7.6418 8.81902 8.11753 8.96702L13.2881 10.5756C13.718 10.7094 14.0109 11.1072 14.0109 11.5575V17.2183C14.0109 17.7082 14.5776 17.9805 14.9601 17.6745C15.0987 17.5636 15.1793 17.3958 15.1793 17.2183V11.0397C15.1793 10.2967 14.692 9.64161 13.9802 9.4281L8.48075 7.77825Z" fill="#27272A"/>
<path id="Vector_3" d="M7 10.8141C7 10.4206 7.3812 10.1396 7.75712 10.256C8.00173 10.3318 8.16848 10.558 8.16848 10.8141V13.6838C8.16848 14.7034 8.82946 15.6052 9.80171 15.9122L12.2135 16.6738C12.4487 16.7481 12.6087 16.9664 12.6087 17.2131C12.6087 17.5901 12.2468 17.8616 11.8848 17.756L9.15374 16.9594C7.87745 16.5872 7 15.4173 7 14.0878V10.8141Z" fill="#27272A"/>
<path id="Vector_4" d="M9.57065 11.6149C9.57065 11.2219 9.95081 10.941 10.3264 11.0564C10.5717 11.1317 10.7391 11.3583 10.7391 11.6149V12.8643C10.7391 13.3069 11.0223 13.6999 11.4422 13.8398L12.2236 14.1003C12.4536 14.177 12.6087 14.3922 12.6087 14.6346C12.6087 15.0135 12.242 15.2843 11.8799 15.1729L10.7584 14.8278C10.0524 14.6106 9.57065 13.9583 9.57065 13.2196V11.6149Z" fill="#27272A"/>
</g>
</g>
</svg>
