<svg xmlns="http://www.w3.org/2000/svg" width="24" height="24" viewBox="0 0 24 24" fill="none">
  <path fill-rule="evenodd" clip-rule="evenodd"
    d="M16.8536 6.64645C17.0488 6.84171 17.0488 7.15829 16.8536 7.35355L10.3536 13.8536C10.1583 14.0488 9.84171 14.0488 9.64645 13.8536C9.45118 13.6583 9.45118 13.3417 9.64645 13.1464L16.1464 6.64645C16.3417 6.45118 16.6583 6.45118 16.8536 6.64645Z"
    fill="#27272A" />
  <path fill-rule="evenodd" clip-rule="evenodd"
    d="M16.8536 6.64646C16.9894 6.78228 17.0354 6.9839 16.9719 7.16519L12.7719 19.1652C12.7042 19.3587 12.5252 19.4912 12.3204 19.4996C12.1155 19.508 11.9264 19.3904 11.8431 19.2031L9.5212 13.9788L4.29693 11.6569C4.10959 11.5737 3.99206 11.3845 4.00042 11.1796C4.00878 10.9748 4.14133 10.7958 4.33483 10.7281L16.3348 6.52808C16.5161 6.46463 16.7177 6.51064 16.8536 6.64646ZM5.85554 11.2553L10.1031 13.1431C10.2162 13.1934 10.3066 13.2838 10.3569 13.3969L12.2447 17.6445L15.685 7.815L5.85554 11.2553Z"
    fill="#27272A" />
</svg>