<svg width="24" height="24" viewBox="0 0 24 24" fill="none" xmlns="http://www.w3.org/2000/svg">
<g id="whatsapp">
<g id="Group 48550">
<g id="Union">
<path fill-rule="evenodd" clip-rule="evenodd" d="M8.7887 8.97976C8.82501 8.91203 8.87749 8.85431 8.94147 8.81173L9.14027 8.6792C9.33476 8.54965 9.55859 8.47085 9.79135 8.44998C10.0241 8.42911 10.2584 8.46684 10.4728 8.55972C10.6873 8.6526 10.875 8.79769 11.019 8.98174C11.163 9.1658 11.2587 9.38298 11.2972 9.61347L11.4279 10.3947C11.4722 10.6608 11.4387 10.9341 11.3314 11.1816C11.2241 11.4292 11.0476 11.6404 10.8231 11.79L10.2096 12.1988C10.3951 12.5271 10.6255 12.8318 10.8968 13.1032C11.1682 13.3745 11.4729 13.6049 11.8012 13.7904L12.21 13.1769C12.3596 12.9524 12.5708 12.7759 12.8184 12.6686C13.0659 12.5613 13.3392 12.5278 13.6053 12.5721L14.3856 12.7028C14.6161 12.7413 14.8342 12.837 15.0183 12.981C15.2023 13.125 15.3474 13.3127 15.4403 13.5272C15.5332 13.7416 15.5709 13.9759 15.55 14.2087C15.5292 14.4414 15.4503 14.6652 15.3208 14.8597L15.1883 15.0585C15.1457 15.1225 15.088 15.175 15.0202 15.2113C14.9525 15.2476 14.8769 15.2666 14.8 15.2667H13.8667C12.5052 15.2667 11.1995 14.7258 10.2369 13.7631C9.27417 12.8005 8.73333 11.4948 8.73333 10.1333V9.2C8.73337 9.12315 8.75239 9.04749 8.7887 8.97976ZM12.6754 14.1609C13.0588 14.2743 13.4597 14.3333 13.8667 14.3333H14.5497C14.5896 14.2705 14.6139 14.199 14.6205 14.1247C14.6274 14.0472 14.6148 13.9691 14.5838 13.8977C14.5528 13.8262 14.5044 13.7637 14.4431 13.7157C14.3817 13.6677 14.3093 13.6359 14.2325 13.6231L13.4523 13.4933C13.3635 13.4784 13.2722 13.4886 13.1896 13.5244C13.107 13.5601 13.0364 13.619 12.9865 13.694L12.6754 14.1609ZM9.93801 11.2587L10.306 11.0135C10.381 10.9636 10.4399 10.893 10.4756 10.8104C10.5114 10.7278 10.5225 10.6365 10.5076 10.5477L10.3769 9.76747C10.3641 9.69066 10.3323 9.61828 10.2843 9.55693C10.2363 9.49558 10.1738 9.44721 10.1023 9.41622C10.0309 9.38523 9.95285 9.37261 9.87528 9.37952C9.80105 9.38612 9.72952 9.41041 9.66667 9.45028V10.1333C9.66667 10.4555 9.70367 10.7738 9.77533 11.0826C9.84277 11.1271 9.89878 11.1876 9.93801 11.2587Z" fill="#27272A"/>
<path fill-rule="evenodd" clip-rule="evenodd" d="M5.04853 18.3252L6.22955 15.9632C5.45389 14.8366 5 13.4708 5 12C5 10.1435 5.7375 8.36301 7.05025 7.05025C8.36301 5.7375 10.1435 5 12 5C13.8565 5 15.637 5.7375 16.9497 7.05025C18.2625 8.36301 19 10.1435 19 12C19 13.8565 18.2625 15.637 16.9497 16.9497C15.637 18.2625 13.8565 19 12 19C10.5822 19.0019 9.19991 18.5716 8.03602 17.7699L5.6748 18.9505C5.5872 18.9941 5.48813 19.009 5.39158 18.9932C5.29504 18.9774 5.2059 18.9316 5.13678 18.8624C5.06765 18.7932 5.02203 18.704 5.00637 18.6074C4.99076 18.5113 5.00527 18.4125 5.04853 18.3252ZM6.50965 17.4899L7.31933 15.8705L7.14667 15.64C6.35726 14.5908 5.9313 13.313 5.93333 12C5.93333 10.391 6.5725 8.84794 7.71022 7.71022C8.84794 6.5725 10.391 5.93333 12 5.93333C12.7967 5.93333 13.5856 6.09025 14.3216 6.39513C15.0577 6.70001 15.7264 7.14688 16.2898 7.71022C16.8531 8.27356 17.3 8.94234 17.6049 9.67839C17.9097 10.4144 18.0667 11.2033 18.0667 12C18.0667 12.7967 17.9097 13.5856 17.6049 14.3216C17.3 15.0577 16.8531 15.7264 16.2898 16.2898C15.7264 16.8531 15.0577 17.3 14.3216 17.6049C13.5856 17.9097 12.7967 18.0667 12 18.0667C10.687 18.0688 9.40913 17.6428 8.36 16.8533L8.12947 16.6807L6.50965 17.4899Z" fill="#27272A"/>
</g>
</g>
</g>
</svg>
