<svg width="24" height="24" viewBox="0 0 24 24" fill="none" xmlns="http://www.w3.org/2000/svg">
<g id="youtube">
<g id="Group 48544">
<path id="Vector" d="M17.4973 16.9538L17.5944 17.409L17.4964 16.9538H17.4973ZM17.4973 7.20075L17.5944 6.7455L17.4964 7.20075H17.4973ZM11.0667 10.2153L11.3252 9.828C11.2549 9.78136 11.1733 9.7546 11.089 9.75057C11.0046 9.74655 10.9208 9.76541 10.8464 9.80516C10.772 9.8449 10.7098 9.90403 10.6664 9.97626C10.623 10.0485 10.6 10.1311 10.6 10.2153H11.0667ZM11.0667 13.9392H10.6C10.6 14.0234 10.623 14.1061 10.6664 14.1783C10.7098 14.2505 10.772 14.3096 10.8464 14.3494C10.9208 14.3891 11.0046 14.408 11.089 14.404C11.1733 14.3999 11.2549 14.3732 11.3252 14.3265L11.0667 13.9392ZM13.8667 12.0773L14.1252 12.4646C14.1891 12.4221 14.2415 12.3645 14.2778 12.2969C14.314 12.2293 14.333 12.1539 14.333 12.0773C14.333 12.0006 14.314 11.9252 14.2778 11.8576C14.2415 11.7901 14.1891 11.7325 14.1252 11.69L13.8667 12.0773ZM5 8.47993V15.6746H5.93333V8.47993H5ZM19 15.6746V8.47993H18.0667V15.6746H19ZM6.4056 17.409C10.0932 18.1976 13.9068 18.1976 17.5944 17.409L17.3984 16.4985C13.8399 17.2592 10.1601 17.2592 6.6016 16.4985L6.4056 17.409ZM17.5944 6.7455C13.9067 5.95723 10.0933 5.95723 6.4056 6.7455L6.6016 7.65601C10.1601 6.89544 13.8399 6.89544 17.3984 7.65601L17.5944 6.7455ZM19 8.47993C19 7.64391 18.4139 6.92053 17.5944 6.7455L17.3984 7.65601C17.7885 7.7398 18.0667 8.0824 18.0667 8.47993H19ZM18.0667 15.6746C18.0667 15.8675 18.0003 16.0545 17.8787 16.2045C17.757 16.3545 17.5875 16.4583 17.3984 16.4985L17.5944 17.409C17.9923 17.324 18.3489 17.1054 18.6047 16.7898C18.8605 16.4741 19.0001 16.0805 19 15.6746H18.0667ZM5 15.6746C5 16.5106 5.58613 17.234 6.4056 17.409L6.6016 16.4985C6.41249 16.4583 6.24296 16.3545 6.12133 16.2045C5.9997 16.0545 5.93334 15.8675 5.93333 15.6746H5ZM5.93333 8.47993C5.93333 8.0824 6.21147 7.73887 6.6016 7.65601L6.4056 6.7455C6.00771 6.83052 5.65109 7.0491 5.39528 7.36475C5.13947 7.68041 4.99995 8.07404 5 8.47993H5.93333ZM10.6 10.2153V13.9392H11.5333V10.2153H10.6ZM11.3252 14.3265L14.1252 12.4646L13.6081 11.69L10.8081 13.552L11.3252 14.3265ZM14.1252 11.69L11.3252 9.828L10.8081 10.6026L13.6081 12.4646L14.1252 11.69Z" fill="#27272A"/>
</g>
</g>
</svg>
