<svg width="226" height="226" viewBox="0 0 226 226" fill="none" xmlns="http://www.w3.org/2000/svg">
  <g clip-path="url(#clip0_392_824)">
    <path d="M177.98 70.7198L153.45 46.0498L137.94 61.6598L162.47 86.3298L177.98 70.7198Z" fill="#52525B" />
    <path
      d="M54.3199 170.43L89.7399 159.15C90.0499 159.05 90.3299 158.88 90.5599 158.65L158.38 90.4398L154.2 86.2398L86.3799 154.45C86.1499 154.68 85.8699 154.85 85.5599 154.95L62.3699 162.34L69.7099 139.02C69.8099 138.71 69.9799 138.42 70.2099 138.19L138.03 69.9798L133.85 65.7798L66.0299 133.99C65.7999 134.22 65.6299 134.51 65.5299 134.82L54.3199 170.44V170.43Z"
      fill="#52525B" />
    <path d="M75.86 144.56L80.04 148.76L148.21 80.2L144.03 76C143.68 76.35 75.86 144.56 75.86 144.56Z" fill="#2FB24B" />
    <path d="M175.42 174.2H49.32H47.13V176.4V176.85V179.05H49.32H175.42H177.61V176.85V176.4V174.2H175.42Z"
      fill="#52525B" />
  </g>
  <defs>
    <clipPath id="clip0_392_824">
      <rect width="225.1" height="225.1" fill="white" />
    </clipPath>
  </defs>
</svg>