<svg width="226" height="226" viewBox="0 0 226 226" fill="none" xmlns="http://www.w3.org/2000/svg">
  <g clip-path="url(#clip0_392_832)">
    <path
      d="M150.29 46.0498H74.8199V179.05H150.29V46.0498ZM94.0799 57.1898V51.5998H131.17V57.1898H94.0799ZM117.22 172.82C110.5 177.89 102.92 170.36 108.02 163.69C114.74 158.6 122.34 166.15 117.22 172.82ZM145.46 62.0498V158.08H79.7899V62.0498H145.46Z"
      fill="#52525B" />
    <path
      d="M121.41 94.1196C117.3 94.1196 113.62 96.8496 112.55 100.61C111.48 96.8496 107.81 94.1196 103.69 94.1196C98.8 94.1196 94.01 98.5296 94.01 104.71C94.01 114.07 108.46 124.78 112.02 125.9C112.09 125.92 112.16 125.95 112.23 125.96C112.34 125.99 112.44 126 112.52 126C112.52 126 112.54 126 112.55 126C112.56 126 112.57 126 112.58 126C112.66 126 112.76 125.98 112.87 125.96C112.94 125.94 113.01 125.92 113.08 125.9C116.64 124.78 131.09 114.07 131.09 104.71C131.09 98.5296 126.3 94.1196 121.41 94.1196Z"
      fill="#2FB24B" />
  </g>
  <defs>
    <clipPath id="clip0_392_832">
      <rect width="225.1" height="225.1" fill="white" />
    </clipPath>
  </defs>
</svg>