<svg width="512" height="512" viewBox="0 0 512 512" fill="#00BB31"
  xmlns="http://www.w3.org/2000/svg">
  <g clip-path="url(#clip0_1908_40629)">
    <path
      d="M491.24 211.883V66.51C491.24 47.893 476.148 32.8 457.53 32.8H331.577L300.974 2.197C299.567 0.790475 297.659 0.00022389 295.67 2.07779e-08H161.23C159.241 2.07779e-08 157.333 0.790176 155.927 2.1967C154.52 3.60322 153.73 5.51088 153.73 7.5C153.73 9.48912 154.52 11.3968 155.927 12.8033C157.333 14.2098 159.241 15 161.23 15H288.17V95.33C288.17 116.632 305.438 133.9 326.74 133.9H407.071V187.74H283.827L263.318 140.083C257.857 127.381 248.79 116.559 237.24 108.958C225.691 101.357 212.165 97.3105 198.339 97.319H72.9V38.57C72.9 25.553 83.453 15 96.47 15H118.416C122.523 15 126.104 11.836 126.227 7.731C126.258 6.72707 126.087 5.72716 125.724 4.79058C125.361 3.85401 124.814 2.99986 124.115 2.27881C123.415 1.55776 122.579 0.984501 121.654 0.593049C120.729 0.201597 119.734 -7.47397e-05 118.73 2.07779e-08L96.47 2.07779e-08C75.168 2.07779e-08 57.9 17.268 57.9 38.569V98.509C25.006 104.569 0 133.439 0 168.06V435.57C0 470.393 23.516 500.819 57.186 509.559C58.1634 509.813 59.1822 509.868 60.1811 509.718C61.18 509.569 62.1384 509.22 62.9989 508.691C63.8594 508.162 64.6041 507.465 65.1884 506.641C65.7727 505.817 66.1845 504.884 66.399 503.897C67.262 499.96 64.684 496.02 60.785 494.996C33.818 487.914 15 463.502 15 435.57V168.06C15 137.276 39.956 112.32 70.74 112.32H198.34C209.234 112.313 219.892 115.502 228.992 121.491C238.093 127.48 245.237 136.006 249.54 146.015L272.001 198.205C272.58 199.551 273.542 200.698 274.766 201.504C275.99 202.31 277.424 202.74 278.89 202.74H435.57C469.497 202.74 497 230.243 497 264.17V435.57C497 469.497 469.497 497 435.57 497H94.244C90.137 497 86.556 500.164 86.433 504.269C86.4021 505.273 86.5731 506.273 86.9359 507.209C87.2988 508.146 87.8461 509 88.5453 509.721C89.2445 510.442 90.0814 511.015 91.0064 511.407C91.9314 511.798 92.9256 512 93.93 512H435.57C477.781 512 512 477.781 512 435.57V264.17C512 243.957 504.099 225.565 491.24 211.883ZM303.17 95.33V25.606L396.464 118.899H326.74C313.743 118.9 303.17 108.327 303.17 95.33ZM422.07 187.74V126.4C422.07 124.411 421.28 122.504 419.874 121.097L376.577 77.8H446.24V139.2C446.24 143.342 449.597 146.7 453.74 146.7C457.883 146.7 461.24 143.342 461.24 139.2V70.3C461.24 68.3109 460.45 66.4032 459.043 64.9967C457.637 63.5902 455.729 62.8 453.74 62.8H361.577L346.577 47.8H457.54C467.852 47.8 476.24 56.193 476.24 66.51V199.507C471.523 196.526 466.493 194.071 461.24 192.189V174.18C461.24 170.038 457.883 166.68 453.74 166.68C449.597 166.68 446.24 170.038 446.24 174.18V188.501C442.705 187.999 439.14 187.745 435.57 187.74H422.07Z" />
    <path
      d="M148.033 394.578C152.176 394.578 155.533 391.22 155.533 387.078C155.533 382.936 152.176 379.578 148.033 379.578H120.65C118.661 379.578 116.753 380.368 115.347 381.775C113.94 383.181 113.15 385.089 113.15 387.078V452.063C113.15 454.052 113.94 455.96 115.347 457.366C116.753 458.773 118.661 459.563 120.65 459.563H148.033C152.176 459.563 155.533 456.205 155.533 452.063C155.533 447.921 152.176 444.563 148.033 444.563H128.15V427.07H146.013C150.156 427.07 153.513 423.712 153.513 419.57C153.513 415.428 150.156 412.07 146.013 412.07H128.15V394.577H148.033V394.578ZM333.172 394.578C337.315 394.578 340.672 391.22 340.672 387.078C340.672 382.936 337.315 379.578 333.172 379.578H305.79C303.801 379.578 301.893 380.368 300.487 381.775C299.08 383.181 298.29 385.089 298.29 387.078V452.063C298.29 454.052 299.08 455.96 300.487 457.366C301.893 458.773 303.801 459.563 305.79 459.563H333.172C337.315 459.563 340.672 456.205 340.672 452.063C340.672 447.921 337.315 444.563 333.172 444.563H313.29V427.07H331.153C335.296 427.07 338.653 423.712 338.653 419.57C338.653 415.428 335.296 412.07 331.153 412.07H313.29V394.577H333.172V394.578ZM160.511 419.271C160.511 441.488 178.586 459.563 200.803 459.563C209.661 459.563 217.61 456.655 223.788 451.153C225.011 450.061 226.154 448.882 227.208 447.626C228.486 446.102 229.107 444.133 228.933 442.151C228.76 440.17 227.806 438.338 226.282 437.06C224.758 435.782 222.789 435.161 220.807 435.334C218.826 435.508 216.994 436.461 215.716 437.985C215.13 438.685 214.493 439.342 213.812 439.95C210.375 443.011 206 444.562 200.803 444.562C186.857 444.562 175.511 433.216 175.511 419.27C175.511 405.324 186.857 393.978 200.803 393.978C205.871 393.978 210.76 395.47 214.94 398.293C215.756 398.844 216.673 399.23 217.638 399.427C218.603 399.624 219.597 399.629 220.564 399.442C221.531 399.254 222.452 398.878 223.273 398.335C224.095 397.792 224.802 397.092 225.353 396.276C226.466 394.628 226.879 392.605 226.501 390.652C226.123 388.699 224.984 386.976 223.336 385.863C216.684 381.363 208.834 378.964 200.803 378.977C178.586 378.979 160.511 397.054 160.511 419.271ZM79.5899 459.563C93.0719 459.563 104.39 450.985 106.5 439.167C108.083 430.301 104.022 418.705 87.8799 412.75C79.7069 409.736 72.1089 406.45 69.9009 405.483C67.7609 403.826 67.8299 401.483 67.9689 400.513C68.1539 399.223 69.0799 396.074 73.6739 394.689C83.2959 391.792 92.1349 398.805 92.3659 398.99C93.8903 400.256 95.8535 400.867 97.8268 400.689C99.8001 400.512 101.623 399.562 102.898 398.045C104.178 396.522 104.8 394.554 104.629 392.572C104.457 390.59 103.506 388.758 101.983 387.478C101.376 386.967 86.9019 375.036 69.3469 380.326C60.5559 382.974 54.3379 389.892 53.1189 398.381C51.9779 406.329 55.4229 413.974 62.1069 418.333C62.4389 418.549 62.7869 418.738 63.1479 418.899C63.5269 419.068 72.5379 423.079 82.6869 426.823C85.7269 427.945 92.6949 431.135 91.7319 436.53C91.0269 440.478 86.2919 444.562 79.5879 444.562C72.8749 444.562 66.4089 441.849 62.2909 437.304C61.6295 436.574 60.8308 435.982 59.9405 435.561C59.0501 435.14 58.0856 434.898 57.1018 434.849C56.1181 434.801 55.1344 434.947 54.2071 435.279C53.2797 435.61 52.4267 436.122 51.6969 436.783C50.9671 437.444 50.3747 438.243 49.9535 439.133C49.5324 440.024 49.2907 440.988 49.2423 441.972C49.1939 442.956 49.3398 443.94 49.6716 444.867C50.0033 445.794 50.5145 446.647 51.1759 447.377C58.0919 455.008 68.7129 459.563 79.5899 459.563ZM370.074 459.563C372.063 459.563 373.971 458.773 375.377 457.366C376.784 455.96 377.574 454.052 377.574 452.063V393.979H388.257C392.4 393.979 395.757 390.621 395.757 386.479C395.757 382.337 392.4 378.979 388.257 378.979H352.037C347.894 378.979 344.537 382.337 344.537 386.479C344.537 390.621 347.894 393.979 352.037 393.979H362.574V452.063C362.574 454.052 363.364 455.96 364.771 457.366C366.177 458.773 368.085 459.563 370.074 459.563ZM287.678 403.524C287.678 389.99 276.235 378.979 262.168 378.979H244.74C243.753 378.979 242.775 379.173 241.864 379.552C240.952 379.93 240.124 380.485 239.427 381.184C238.73 381.883 238.178 382.713 237.803 383.626C237.428 384.539 237.236 385.517 237.24 386.504L237.219 452.064C237.219 456.206 240.576 459.564 244.719 459.564C248.862 459.564 252.219 456.206 252.219 452.064V431.648L274.548 457.019C275.251 457.82 276.118 458.462 277.089 458.901C278.061 459.34 279.115 459.566 280.181 459.564C281.623 459.563 283.035 459.147 284.247 458.364C285.458 457.582 286.419 456.466 287.013 455.152C287.607 453.837 287.809 452.38 287.595 450.953C287.381 449.527 286.761 448.192 285.808 447.109L268.397 427.326C279.461 424.644 287.678 414.991 287.678 403.524ZM262.168 413.068C259.881 413.068 255.895 413.085 252.318 413.103C252.299 409.605 252.273 397.641 252.262 393.979H262.167C267.864 393.979 272.677 398.35 272.677 403.524C272.677 408.698 267.865 413.068 262.168 413.068ZM74.3489 360.857C76.338 360.857 78.2457 360.067 79.6522 358.66C81.0587 357.254 81.8489 355.346 81.8489 353.357V293.883H92.9169C97.0599 293.883 100.417 290.525 100.417 286.383C100.417 282.241 97.0599 278.883 92.9169 278.883H55.9309C51.7879 278.883 48.4309 282.241 48.4309 286.383C48.4309 290.525 51.7879 293.883 55.9309 293.883H66.8489V353.357C66.8489 355.346 67.6391 357.254 69.0456 358.66C70.4521 360.067 72.3598 360.857 74.3489 360.857ZM188.561 353.357C188.561 357.499 191.918 360.857 196.061 360.857C200.204 360.857 203.561 357.499 203.561 353.357V331.725C207.528 331.704 212.133 331.683 214.709 331.683C229.47 331.683 241.479 319.84 241.479 305.283C241.479 290.726 229.47 278.883 214.709 278.883H196.061C195.074 278.883 194.097 279.078 193.186 279.456C192.274 279.835 191.446 280.389 190.75 281.088C190.053 281.787 189.501 282.616 189.125 283.529C188.75 284.442 188.558 285.419 188.561 286.406V353.357ZM214.709 293.883C221.089 293.883 226.479 299.104 226.479 305.283C226.479 311.463 221.089 316.683 214.709 316.683C212.15 316.683 207.603 316.704 203.648 316.724C203.627 312.644 203.594 298.148 203.583 293.883H214.709ZM142.34 278.883C119.74 278.883 101.354 297.27 101.354 319.87C101.354 342.47 119.741 360.857 142.34 360.857C164.939 360.857 183.326 342.47 183.326 319.87C183.326 297.27 164.939 278.883 142.34 278.883ZM142.34 345.857C128.011 345.857 116.354 334.199 116.354 319.87C116.354 305.541 128.011 293.883 142.34 293.883C156.669 293.883 168.326 305.541 168.326 319.87C168.326 334.199 156.669 345.857 142.34 345.857Z" />
  </g>
  <defs>
    <clipPath id="clip0_1908_40629">
      <rect width="512" height="512" />
    </clipPath>
  </defs>
</svg>