<svg width="226" height="226" viewBox="0 0 226 226" fill="none" xmlns="http://www.w3.org/2000/svg">
  <g clip-path="url(#clip0_392_815)">
    <path
      d="M179.05 46.0498H46.05V179.05H179.05V46.0498ZM75.4101 57.0198C82.0901 51.9298 89.65 59.4798 84.56 66.1498C77.88 71.2298 70.3301 63.6898 75.4101 57.0198ZM58.12 57.0198C64.8 51.9298 72.36 59.4798 67.27 66.1498C60.59 71.2298 53.04 63.6898 58.12 57.0198ZM174.25 77.1198V174.25H50.85V77.1198H174.25Z"
      fill="#52525B" />
    <path
      d="M93.9301 115.89L89.2701 135.37H83.4201L80.3001 122.34L77.1501 135.37H71.3001L66.6401 115.89H71.7701L74.2801 130L77.7001 115.89H82.8601L86.2801 130L88.8201 115.89H93.9201H93.9301Z"
      fill="#2FB24B" />
    <path
      d="M122.93 115.89L118.27 135.37H112.42L109.3 122.34L106.15 135.37H100.3L95.6401 115.89H100.77L103.28 130L106.7 115.89H111.86L115.28 130L117.82 115.89H122.92H122.93Z"
      fill="#2FB24B" />
    <path
      d="M151.92 115.89L147.26 135.37H141.41L138.29 122.34L135.14 135.37H129.29L124.63 115.89H129.76L132.27 130L135.69 115.89H140.85L144.27 130L146.81 115.89H151.91H151.92Z"
      fill="#2FB24B" />
    <path
      d="M158.45 133.009C158.45 134.309 157.39 135.369 156.09 135.369H155.92C154.62 135.369 153.56 134.319 153.56 133.009C153.56 131.709 154.62 130.649 155.92 130.649H156.09C157.39 130.649 158.45 131.699 158.45 133.009Z"
      fill="#2FB24B" />
  </g>
  <defs>
    <clipPath id="clip0_392_815">
      <rect width="225.1" height="225.1" fill="white" />
    </clipPath>
  </defs>
</svg>