<?xml version="1.0" encoding="UTF-8"?>
<svg id="Capa_1" data-name="Capa 1" xmlns="http://www.w3.org/2000/svg" viewBox="0 0 56.69 56.69">
  <defs>
    <style>
      .cls-1 {
        fill: #71717a;
      }
    </style>
  </defs>
  <path class="cls-1" d="m37.42,25.58c-.97-.05-1.9.46-2.36,1.35-.21.41-.34.83-.39,1.28h3.74c.46,0,.8,0,1.01-.02.14-.02.28-.05.41-.14v-.18c0-.23-.04-.44-.11-.66-.32-.99-1.26-1.67-2.3-1.63Z"/>
  <path class="cls-1" d="m22.22,26.1c-.18-.55-.34-1.08-.51-1.63-.18-.55-.34-1.06-.48-1.58-.14-.5-.27-.96-.39-1.38h-.04c-.16.76-.35,1.52-.6,2.29-.27.85-.53,1.74-.82,2.62-.23.9-.51,1.74-.78,2.48h4.5c-.11-.37-.25-.81-.41-1.28-.16-.48-.32-.99-.48-1.52Z"/>
  <path class="cls-1" d="m42.08,7.62H14.62c-4.16,0-7.53,3.37-7.53,7.53v26.4c0,4.16,3.37,7.53,7.53,7.53h27.46c4.16,0,7.53-3.37,7.53-7.53V15.15c0-4.16-3.37-7.53-7.53-7.53Zm-12.47,29.25h-3.7c-.12.02-.25-.07-.28-.19l-1.45-4.25h-6.59l-1.35,4.18c-.04.16-.18.27-.34.25h-3.33c-.2,0-.25-.11-.2-.32l5.7-16.35c.05-.18.11-.34.18-.55.07-.37.11-.76.11-1.15-.02-.09.05-.18.14-.19h4.59c.12,0,.21.05.23.14l6.47,18.16c.05.19,0,.28-.18.28Zm13.91-7.07c-.04.34-.05.58-.07.74-.02.12-.12.23-.25.23-.11,0-.3.02-.58.04-.28.04-.62.05-1.03.05s-.83-.07-1.29-.07h-5.62c.07.55.25,1.1.55,1.58.32.48.76.85,1.29,1.06.71.3,1.49.46,2.27.44.62-.02,1.24-.07,1.84-.2.55-.07,1.08-.21,1.58-.41.09-.07.14-.04.14.14v2.71c0,.07-.02.14-.04.21-.04.05-.07.09-.12.12-.57.25-1.15.43-1.77.53-.83.16-1.67.23-2.52.21-1.35,0-2.48-.21-3.4-.62-.87-.37-1.63-.96-2.23-1.68-.57-.69-.97-1.47-1.22-2.32-.25-.83-.37-1.7-.37-2.59,0-.96.14-1.9.44-2.82.28-.89.73-1.7,1.33-2.43.58-.71,1.31-1.28,2.14-1.68.83-.41,1.82-.55,2.96-.55.94-.02,1.88.16,2.75.55.73.32,1.36.8,1.86,1.42.46.6.83,1.28,1.06,2.02.23.71.34,1.43.34,2.16,0,.43-.02.8-.04,1.13Z"/>
</svg>