<?xml version="1.0" encoding="UTF-8"?>
<svg id="Capa_1" data-name="Capa 1" xmlns="http://www.w3.org/2000/svg" viewBox="0 0 56.69 56.69">
  <defs>
    <style>
      .cls-1 {
        fill: #71717a;
      }
    </style>
  </defs>
  <path class="cls-1" d="m36.56,12.16v31.89c0,3.57,2.46,5.56,5.07,5.56,2.42,0,5.07-1.69,5.07-5.56V12.4c0-3.27-2.42-5.31-5.07-5.31s-5.07,2.25-5.07,5.07Zm-13.29,16.19v15.7c0,3.57,2.46,5.56,5.07,5.56,2.42,0,5.07-1.69,5.07-5.56v-15.46c0-3.27-2.42-5.31-5.07-5.31s-5.07,2.25-5.07,5.07Zm-8.21,21.26c2.8,0,5.07-2.27,5.07-5.07s-2.27-5.07-5.07-5.07h0c-2.8,0-5.07,2.27-5.07,5.07s2.27,5.07,5.07,5.07Z"/>
</svg>