<?xml version="1.0" encoding="UTF-8"?>
<svg id="Capa_1" data-name="Capa 1" xmlns="http://www.w3.org/2000/svg" viewBox="0 0 56.69 56.69">
  <defs>
    <style>
      .cls-1 {
        fill: #71717a;
        fill-rule: evenodd;
      }
    </style>
  </defs>
  <path class="cls-1" d="m15.92,11.16c-2.43,0-4.22,2.14-4.14,4.46.08,2.23-.02,5.12-.74,7.47-.73,2.36-1.95,3.86-3.95,4.05v2.17c2,.19,3.22,1.69,3.95,4.05.72,2.35.82,5.24.74,7.47-.08,2.32,1.71,4.46,4.14,4.46h24.86c2.43,0,4.22-2.14,4.14-4.46-.08-2.23.02-5.12.74-7.47.72-2.36,1.95-3.86,3.94-4.05v-2.17c-2-.19-3.22-1.69-3.94-4.05-.72-2.36-.82-5.24-.74-7.47.08-2.32-1.72-4.46-4.14-4.46,0,0-24.86,0-24.86,0Zm19.99,21.01c0,3.2-2.37,5.13-6.29,5.13h-6.68c-.19,0-.37-.08-.51-.21-.14-.14-.21-.32-.21-.51v-16.7c0-.19.08-.38.21-.51.13-.14.32-.21.51-.21h6.64c3.27,0,5.42,1.79,5.42,4.53,0,1.92-1.45,3.65-3.29,3.95v.1c2.51.28,4.19,2.03,4.19,4.44h0Zm-7.02-10.72h-3.81v5.42h3.21c2.48,0,3.85-1.01,3.85-2.81,0-1.69-1.18-2.62-3.25-2.62h0Zm-3.81,7.58v5.98h3.95c2.58,0,3.95-1.04,3.95-3.01s-1.41-2.97-4.12-2.97h-3.78Z"/>
</svg>