<?xml version="1.0" encoding="UTF-8"?>
<svg id="Capa_1" data-name="Capa 1" xmlns="http://www.w3.org/2000/svg" viewBox="0 0 56.69 56.69">
  <defs>
    <style>
      .cls-1 {
        fill: #71717a;
        fill-rule: evenodd;
      }
    </style>
  </defs>
  <path class="cls-1" d="m18.23,7.22c-1.24.33-2.36,1.03-3.18,2.02-.54.64-9.5,16.34-9.76,17.11-.43,1.27-.43,2.64,0,3.91.26.77,9.22,16.47,9.76,17.11.58.68,1.2,1.17,1.99,1.56,1.39.68.75.64,10.62.67,5.69.02,9.08,0,9.69-.05,1.84-.16,3.15-.82,4.28-2.15.56-.65,9.51-16.34,9.78-17.13.43-1.27.43-2.64,0-3.9-.27-.8-9.22-16.48-9.78-17.14-.78-.91-1.62-1.49-2.83-1.92l-.52-.19h-9.73c-9.14-.03-9.76-.02-10.32.12Zm19.42,4.53c.16.09.36.22.44.31.08.09,2.15,3.67,4.6,7.97,4.42,7.74,4.46,7.81,4.46,8.26s-.04.52-4.5,8.32c-2.47,4.32-4.56,7.92-4.64,8-.47.41.02.39-9.67.39-8.67,0-9.02,0-9.3-.15-.16-.08-.31-.18-.44-.31-.08-.09-2.15-3.67-4.6-7.97q-4.45-7.8-4.46-8.27c0-.46,0-.48,4.47-8.28,1.51-2.67,3.04-5.32,4.6-7.96.13-.12.27-.22.42-.3.27-.14.69-.15,9.3-.15,8.7,0,9.03,0,9.32.15Zm-10.13,5.37c-.4.06-.79.16-1.18.29-.65.23-5.16,2.75-6.07,3.39-1.25.88-2.11,2.2-2.43,3.69-.17.83-.17,6.78,0,7.6.32,1.49,1.19,2.81,2.43,3.69.89.63,5.42,3.15,6.05,3.38,1.28.46,2.73.46,4.01,0,.6-.21,5.01-2.66,6.03-3.35.87-.59,1.7-1.62,2.14-2.65.42-.99.45-1.38.45-4.88s-.04-3.89-.45-4.88c-.46-1.06-1.2-1.98-2.14-2.65-1-.68-5.43-3.14-6.02-3.34-.42-.14-.86-.24-1.3-.31-.51-.1-1.03-.09-1.54,0Zm3.68,5.9c1.32.75,2.51,1.45,2.64,1.54.17.14.31.32.41.52.16.33.17.47.17,3.22s0,2.88-.17,3.22c-.1.2-.24.38-.41.52-.13.1-1.32.79-2.64,1.54-2.33,1.33-2.41,1.37-2.86,1.37s-.53-.04-2.8-1.34c-2.94-1.68-2.89-1.65-3.1-2.08-.17-.34-.17-.47-.17-3.22s0-2.88.17-3.22c.21-.43.16-.4,3.1-2.08,2.28-1.3,2.36-1.34,2.8-1.34s.53.04,2.86,1.37h0Z"/>
</svg>