<?xml version="1.0" encoding="UTF-8"?>
<svg id="Capa_1" data-name="Capa 1" xmlns="http://www.w3.org/2000/svg" viewBox="0 0 56.69 56.69">
  <defs>
    <style>
      .cls-1 {
        fill: #71717a;
      }
    </style>
  </defs>
  <path class="cls-1" d="m49.61,40.02c-1.28.48-2.72-.06-3.36-1.28-1.93-2.89-4.06-5.64-6.1-8.45l-.89-1.18c-2.44,3.26-4.87,6.39-7.09,9.65-.6,1.16-1.96,1.7-3.19,1.25l9.14-12.26-8.5-11.08c1.26-.46,2.67.04,3.37,1.18,1.97,2.88,4.16,5.64,6.34,8.56,2.19-2.9,4.35-5.66,6.37-8.52.6-1.14,1.96-1.65,3.17-1.18l-3.3,4.37c-1.48,1.95-2.93,3.91-4.47,5.82-.49.44-.53,1.18-.09,1.67.03.03.06.06.09.09,2.83,3.75,5.63,7.51,8.51,11.36ZM7.09,27.6c.25-1.18.4-2.47.74-3.68,2.05-7.27,10.38-10.3,16.11-5.79,3.36,2.64,4.2,6.37,4.03,10.58H9.06c-.31,7.52,5.12,12.06,12.06,9.74,2.29-.82,4.01-2.73,4.58-5.1.37-1.18.96-1.38,2.08-1.04-.37,2.92-2.06,5.5-4.59,7.01-4.22,2.31-9.44,1.64-12.94-1.66-1.69-1.9-2.71-4.3-2.91-6.83,0-.4-.15-.8-.24-1.18,0-.69-.01-1.37-.01-2.06Zm2-.51h17.1c-.11-5.45-3.55-9.31-8.13-9.35-5.11-.07-8.76,3.71-8.98,9.33,0,0,.01.02.01.02Z"/>
</svg>