<?xml version="1.0" encoding="UTF-8"?>
<svg id="Capa_1" data-name="Capa 1" xmlns="http://www.w3.org/2000/svg" viewBox="0 0 56.69 56.69">
  <defs>
    <style>
      .cls-1 {
        fill: #71717a;
        fill-rule: evenodd;
        stroke: #71717a;
        stroke-width: 1.58px;
      }
    </style>
  </defs>
  <path class="cls-1" d="m20.53,7.16c-1.38.26-2.68,1.01-3.78,2.17-1.16,1.22-1.7,2.39-2,4.29-.43,2.74.85,5.75,3.12,7.37l.74.52-.63.43c-3.06,2.07-4.18,6.31-2.58,9.75.61,1.31,1.41,2.26,2.6,3.09l.61.42-.73.52c-1.78,1.28-2.8,3.01-3.13,5.32-.13.91-.13,1.25,0,2.05.3,1.9.82,3.03,1.99,4.28.86.92,1.84,1.57,2.96,1.97.63.22,1.02.27,2.19.27,1.27,0,1.52-.04,2.28-.33,1.21-.47,1.97-.99,2.84-1.92.9-.96,1.53-2.15,1.84-3.43.21-.87.23-1.37.23-5.81,0-2.67.03-4.86.07-4.86s.39.31.77.7c1.04,1.02,2.01,1.54,3.61,1.91.94.22,1.61.22,2.6,0,2.67-.59,4.73-2.51,5.54-5.14,1.01-3.27-.2-6.83-2.99-8.77l-.61-.42.74-.52c2.28-1.62,3.55-4.62,3.12-7.37-.17-1.1-.5-2.15-.91-2.88-.78-1.4-2.4-2.77-3.95-3.36l-.74-.28-7.65-.02c-4.21-.01-7.88.02-8.16.08Zm7.08,7.49v6.04h-3.35c-3.06,0-3.41-.02-4.06-.25-.71-.25-1.63-.81-2.19-1.35-1.32-1.26-2.07-3.39-1.81-5.16.21-1.46.62-2.34,1.58-3.42.78-.88,1.91-1.57,2.88-1.78.28-.06,1.95-.11,3.73-.12h3.22s0,6.02,0,6.02h0Zm8.35-5.91c1.8.36,3.5,1.88,4.19,3.74.73,1.97.46,4.09-.74,5.76-.75,1.04-1.75,1.8-2.9,2.2-.65.22-1,.25-4.06.25h-3.35v-12.08h3.12c1.72,0,3.4.06,3.74.12Zm-8.4,19.62v6.04l-2.85.04c-1.83.02-3.14-.01-3.65-.1-2.2-.39-3.72-1.76-4.63-4.16-.23-.61-.33-1.82-.21-2.59.13-.83.14-.87.58-1.93.39-.95,1.57-2.19,2.54-2.67,1.3-.64,1.66-.69,5.09-.67l3.14.02s0,6.04,0,6.04Zm2.68-6c0,.12-.95,1.11-1.06,1.11-.1,0-.11-1.02,0-1.13.11-.11,1.06-.1,1.06.02Zm5.74.08c.93.23,1.99.79,2.6,1.36,1.4,1.32,2.16,3.4,1.93,5.22-.37,2.81-2.22,4.83-4.86,5.32-2.31.43-4.83-.99-5.91-3.33-.82-1.78-.82-3.54,0-5.31,1.15-2.48,3.83-3.88,6.26-3.27h0Zm-8.36,16.97c0,3.66-.06,4.2-.64,5.37-.7,1.44-1.73,2.36-3.38,3.07-.5.22-2.02.3-2.77.15-.85-.16-2.14-.83-2.72-1.41-2.6-2.58-2.61-6.48-.03-9.02.32-.31.62-.57.68-.57.05,0,.23-.1.4-.23.17-.13.61-.34.99-.47.62-.22.99-.24,4.08-.25h3.4s0,3.37,0,3.37Z"/>
</svg>