<?xml version="1.0" encoding="UTF-8"?>
<svg id="Capa_1" data-name="Capa 1" xmlns="http://www.w3.org/2000/svg" viewBox="0 0 56.69 56.69">
  <defs>
    <style>
      .cls-1 {
        fill: #71717a;
      }
    </style>
  </defs>
  <path class="cls-1" d="m18.84,7.79c1.59.54,3.11,1.29,4.51,2.22,1.98-.51,4.01-.76,6.06-.76,2.11,0,4.14.26,6.05.75,1.4-.93,2.92-1.68,4.51-2.22,1.48-.5,3.59-1.32,4.84.07.85.94,1.06,2.52,1.21,3.73.17,1.35.21,3.1-.24,4.84,1.71,2.2,2.73,4.83,2.73,7.69,0,4.34-2.35,8.1-5.83,10.71-1.67,1.24-3.53,2.21-5.5,2.88.47,1.07.71,2.23.71,3.4v6.37c0,1.17-.95,2.12-2.12,2.12h-12.74c-1.17,0-2.12-.95-2.12-2.12v-2.1c-2.03.25-3.73.03-5.18-.59-1.51-.64-2.56-1.64-3.36-2.59-.75-.9-1.57-2.93-2.76-3.33-1.11-.37-1.72-1.57-1.34-2.69.37-1.11,1.57-1.72,2.69-1.34h0c1.41.47,2.34,1.49,2.97,2.31,1.02,1.32,1.85,3.04,3.46,3.72.66.28,1.64.47,3.17.26l.35-.07c0-1.16.24-2.3.71-3.36-1.97-.67-3.83-1.64-5.5-2.88-3.48-2.61-5.83-6.37-5.83-10.71,0-2.86,1.03-5.48,2.73-7.68-.45-1.74-.41-3.5-.24-4.85v-.08c.17-1.24.35-2.69,1.21-3.65,1.25-1.39,3.36-.57,4.84-.07,0,0,0,0,0,0Z"/>
</svg>