<?xml version="1.0" encoding="UTF-8"?>
<svg id="Capa_1" data-name="Capa 1" xmlns="http://www.w3.org/2000/svg" viewBox="0 0 56.69 56.69">
  <defs>
    <style>
      .cls-1 {
        stroke-linecap: round;
      }

      .cls-1, .cls-2 {
        fill: none;
        stroke: #71717a;
        stroke-width: 3.17px;
      }
    </style>
  </defs>
  <path class="cls-2" d="m48.06,39.74l-13.44-28.83c-1.59-3.41-5.65-4.89-9.06-3.3-3.41,1.59-4.89,5.65-3.3,9.06h0l13.45,28.83c1.57,3.42,5.61,4.93,9.04,3.37,3.42-1.57,4.93-5.61,3.37-9.04-.01-.03-.03-.06-.04-.09Z"/>
  <path class="cls-1" d="m27.7,31.09l-6.72,14.42c-1.59,3.41-5.65,4.89-9.06,3.3-3.41-1.59-4.89-5.65-3.3-9.06l13.33-28.58"/>
  <path class="cls-2" d="m11.91,48.8c3.4,1.62,7.47.17,9.09-3.23s.17-7.47-3.23-9.09c-.03-.01-.06-.03-.09-.04-3.42-1.57-7.47-.06-9.04,3.37-1.55,3.39-.09,7.39,3.27,8.99Z"/>
</svg>