<?xml version="1.0" encoding="UTF-8"?>
<svg id="Capa_1" data-name="Capa 1" xmlns="http://www.w3.org/2000/svg" viewBox="0 0 56.69 56.69">
  <defs>
    <style>
      .cls-1 {
        fill: #71717a;
      }
    </style>
  </defs>
  <path class="cls-1" d="m11.57,27.9c.38-.31.65-.72.79-1.18.16-.68.12-1.34-.79-1.8-2.32-1.16-3.82.91-4.05,1.4-.23.49-.6,1.25-.34,3.01.25,1.76,1.09,3.37,3.77,3.99,2.54.58,5.21.27,7.54-.88,2.34-1.11,6.75-3.06,7.86-3.26.73-.18,1.47-.27,2.22-.28v-2.67c-.58-1.04-1.46-1.88-2.51-2.44-1.06-.55-2.25-.79-3.44-.68-4.25.33-5.93,2.52-6.97,3.44s-2.95,3.12-4.24,2.72c-1.29-.4-1.65-1.94-1.19-2.43.46-.49.81-.4,1.09,0,.18.32.27.69.26,1.06h0Z"/>
  <path class="cls-1" d="m45.13,27.9c-.38-.31-.65-.72-.79-1.18-.16-.68-.12-1.34.79-1.81,2.32-1.17,3.82.91,4.05,1.4s.6,1.25.34,3.01c-.25,1.76-1.09,3.37-3.77,3.99-2.54.58-5.2.27-7.54-.87-2.35-1.11-6.75-3.06-7.87-3.26-.73-.18-1.48-.27-2.23-.28v-2.67c.58-1.04,1.46-1.88,2.51-2.44,1.06-.55,2.26-.79,3.45-.68,4.25.34,5.94,2.51,6.97,3.43,1.03.92,2.95,3.12,4.24,2.72,1.29-.4,1.65-1.96,1.19-2.45-.46-.49-.81-.4-1.09,0-.18.33-.28.7-.27,1.08h0Z"/>
</svg>