<?xml version="1.0" encoding="UTF-8"?>
<svg id="Capa_1" data-name="Capa 1" xmlns="http://www.w3.org/2000/svg" viewBox="0 0 56.69 56.69">
  <defs>
    <style>
      .cls-1 {
        fill: #71717a;
      }
    </style>
  </defs>
  <path class="cls-1" d="m25.74,26.1c-.18-.55-.34-1.08-.51-1.63-.18-.55-.34-1.06-.48-1.58-.14-.5-.27-.96-.39-1.38h-.04c-.16.76-.35,1.52-.6,2.29-.27.85-.53,1.74-.82,2.62-.25.9-.51,1.74-.78,2.48h4.5c-.11-.37-.25-.82-.41-1.28-.16-.48-.32-.99-.48-1.52Z"/>
  <path class="cls-1" d="m42.08,7.62H14.62c-4.16,0-7.53,3.37-7.53,7.53v26.4c0,4.16,3.37,7.53,7.53,7.53h27.46c4.16,0,7.53-3.37,7.53-7.53V15.15c0-4.16-3.37-7.53-7.53-7.53Zm-8.95,29.29h-3.7c-.12.02-.25-.07-.28-.19l-1.45-4.22h-6.59l-1.35,4.16c-.04.16-.18.27-.34.25h-3.33c-.19,0-.25-.11-.19-.32l5.7-16.42c.05-.18.11-.37.18-.58.07-.37.11-.76.11-1.15-.02-.09.05-.18.14-.19h4.59c.14,0,.21.05.23.14l6.47,18.25c.05.19,0,.28-.18.28Zm6.02-.27c0,.19-.07.28-.23.28h-3.47c-.18,0-.27-.11-.27-.28v-13.64c0-.18.07-.25.23-.25h3.51c.16,0,.23.09.23.25v13.64Zm-.37-16c-.41.43-1.01.66-1.61.62-.58.02-1.15-.21-1.58-.62-.41-.44-.62-1.03-.6-1.63-.02-.6.21-1.17.64-1.58.43-.41.99-.62,1.58-.62.69,0,1.22.21,1.61.62.39.43.6.99.58,1.58.02.6-.19,1.19-.62,1.63Z"/>
</svg>