<?xml version="1.0" encoding="UTF-8"?>
<svg id="Capa_1" data-name="Capa 1" xmlns="http://www.w3.org/2000/svg" viewBox="0 0 56.69 56.69">
  <defs>
    <style>
      .cls-1 {
        fill: #71717a;
      }
    </style>
  </defs>
  <path class="cls-1" d="m33.41,25.74c-.69,0-1.38.14-2,.46-.6.3-1.12.74-1.51,1.31-.39.57-.58,1.33-.58,2.25-.02.62.09,1.24.3,1.82.18.48.44.9.8,1.26.34.32.74.57,1.2.71.48.16.97.23,1.47.23.27,0,.51-.02.74-.04.23.02.44-.02.64-.09v-7.8c-.16-.04-.32-.07-.48-.09-.19-.02-.39-.04-.58-.04Z"/>
  <path class="cls-1" d="m42.08,7.62H14.62c-4.16,0-7.53,3.37-7.53,7.53v26.4c0,4.16,3.37,7.53,7.53,7.53h27.46c4.16,0,7.53-3.37,7.53-7.53V15.15c0-4.16-3.37-7.53-7.53-7.53Zm-19.54,29.02c0,.19-.09.28-.25.28h-3.47c-.16,0-.23-.09-.23-.28v-18.18c0-.16.09-.23.25-.23h3.45c.11-.02.21.05.23.18.02.02.02.04.02.05v18.18Zm15.82-.53c-.92.39-1.9.67-2.89.85-.89.16-1.81.25-2.73.25-1.31.02-2.62-.25-3.81-.8-1.12-.51-2.04-1.36-2.68-2.41-.66-1.08-.97-2.43-.97-4.04-.02-1.31.32-2.6.97-3.74.67-1.15,1.65-2.11,2.82-2.75,1.24-.69,2.73-1.03,4.48-1.03.09,0,.21,0,.37.02.16.02.34.02.55.04v-5.6c0-.12.05-.19.18-.19h3.6c.09-.02.16.05.18.12v16.9c0,.32.02.67.04,1.06.04.37.05.73.07,1.03,0,.12-.05.23-.18.28Z"/>
</svg>