<?xml version="1.0" encoding="UTF-8"?>
<svg id="Capa_1" data-name="Capa 1" xmlns="http://www.w3.org/2000/svg" viewBox="0 0 56.69 56.69">
  <defs>
    <style>
      .cls-1 {
        fill: #71717a;
      }
    </style>
  </defs>
  <path class="cls-1" d="m13.07,6.97c-3.3,0-5.98,2.68-5.98,5.98h0v30.56c0,3.3,2.68,5.98,5.98,5.98h30.56c3.3,0,5.98-2.68,5.98-5.98h0V12.95c0-3.3-2.68-5.98-5.98-5.98h0s-30.56,0-30.56,0Zm17.16,33.16c0,4.14-2.43,6.03-5.97,6.03-2.35,0-3.97-.89-5.04-2.16-.65-.77-.3-1.89.57-2.41.95-.57,2.06-.11,2.94.56.36.27.79.44,1.37.44,1.31,0,2.15-.51,2.15-2.51v-11.58c.04-1.1.96-1.97,2.06-1.93,1.05.03,1.9.88,1.93,1.93,0,0,0,11.64,0,11.64Zm9.45,6.03h0c-2.84,0-4.91-1.03-6.25-2.55-.69-.78-.33-1.94.57-2.45.92-.53,2.05-.17,2.86.52.69.59,1.56.96,2.74.96,1.65,0,2.72-.83,2.72-1.97,0-1.37-1.08-1.85-2.91-2.66l-1-.43c-2.89-1.22-4.79-2.77-4.79-6.03,0-3,2.29-5.28,5.85-5.28,1.94,0,3.46.51,4.66,1.79.67.71.37,1.82-.45,2.35-.89.57-2.01.13-2.95-.37-.37-.2-.78-.28-1.27-.28-1.17,0-1.91.74-1.91,1.71,0,1.2.74,1.68,2.46,2.43l1,.43c3.4,1.45,5.31,2.94,5.31,6.28,0,3.59-2.83,5.56-6.62,5.56h0Z"/>
</svg>