<?xml version="1.0" encoding="UTF-8"?>
<svg id="Capa_1" data-name="Capa 1" xmlns="http://www.w3.org/2000/svg" xmlns:xlink="http://www.w3.org/1999/xlink" viewBox="0 0 56.69 56.69">
  <defs>
    <style>
      .cls-1, .cls-2 {
        fill: none;
      }

      .cls-3 {
        fill: #71717a;
      }

      .cls-2 {
        clip-path: url(#clippath);
      }
    </style>
    <clipPath id="clippath">
      <rect class="cls-1" x="7.09" y="6.97" width="42.52" height="42.52"/>
    </clipPath>
  </defs>
  <g class="cls-2">
    <path class="cls-3" d="m33.82,29.86l3.96,7.38-4.23,7.76h2.98l2.93-5.21,2.93,5.21h2.98l-4.23-7.76,3.9-7.38h-2.98l-2.6,4.83-2.6-4.83h-3.04Zm-8.24.33c3.21-1.18,5.68.33,6.4,2.06l-2.33,1.52c-.34-.62-1.08-1.26-1.93-1.3-.77-.04-1.48.36-1.51,1.4.05,1.52,2.04,1.52,4.43,3.03,1.75,1.11,2.08,1.96,2.24,3.49.12,1.14-.09,3.1-2.33,4.09-2.43,1.08-6.75.69-8.23-2.57l2.44-1.41c1.22,2.32,4.39,2.31,5.01.79.61-1.49-1.22-2.07-3.5-3.08-.99-.51-2.52-1.31-2.98-3.27-.35-1.48-.04-3.72,2.28-4.74Zm-11.66,10.58l-2.49,1.52c1.04,1.96,2.71,2.85,4.77,2.79,2.64-.08,4.08-1.58,4.39-3.88v-11.23h-3.04v10.96s-.15.81-.61,1.11c-.51.33-1.29.28-1.66.16-.7-.24-1.36-1.43-1.36-1.43h0Zm35.69,3.96V11.74c-.06-2.26-1.51-4.73-4.77-4.77H11.86c-2.52-.02-4.74,1.95-4.77,4.77v32.97c.03,2.82,2.25,4.79,4.77,4.77h32.97c3.26-.05,4.72-2.51,4.77-4.77h0Zm-2.5,0c-.02.91-.47,2.09-2.28,2.22H11.86c-1.19,0-2.2-.81-2.22-2.22V11.74c.02-1.41,1.04-2.22,2.22-2.22h32.97c1.8.13,2.26,1.31,2.28,2.22v32.97h0Z"/>
  </g>
</svg>