<?xml version="1.0" encoding="UTF-8"?>
<svg id="Capa_1" data-name="Capa 1" xmlns="http://www.w3.org/2000/svg" viewBox="0 0 56.69 56.69">
  <defs>
    <style>
      .cls-1 {
        fill: #71717a;
      }
    </style>
  </defs>
  <path class="cls-1" d="m47.6,30.65v-9.06c0-2.53-1.32-4.88-3.49-6.19l-12.02-7.27c-1.15-.7-2.45-1.04-3.74-1.04-1.22,0-2.43.31-3.53.92l-.2.12h-.02s-.02.03-.02.03c-.28.17-.55.37-.82.59h0c-.34.29-.66.61-.95.97h0s0,0,0,0h0s-.18.21-.18.21c-.08.11-.17.24-.27.4-.08.12-.15.22-.21.31-.07.12-.14.25-.21.39-.07.13-.13.26-.19.38-.06.13-.11.25-.16.38-.03.09-.06.18-.09.27-.02.06-.04.12-.06.18-.04.14-.08.25-.1.36-.04.15-.07.32-.1.5,0,.02,0,.03,0,.05-.02.14-.04.24-.05.3-.04.3-.06.59-.06.88v8.12l2.69-1.63c1.4-.85,2.97-1.27,4.55-1.27,1.58,0,3.15.42,4.55,1.27l12.02,7.27c.32.19.62.4.9.63.15.12.29.26.43.38.13.11.26.22.38.34.19.19.35.39.52.6.06.07.13.14.19.22.1.13.18.26.27.39Z"/>
  <path class="cls-1" d="m45.55,40.14c.14-.15.28-.32.44-.51h0s0-.02,0-.02l.14-.16c.16-.21.3-.43.44-.67v-.02s.02-.01.02-.01l.03-.04c.59-1.03.93-2.2.96-3.42-.07-1.5-.6-2.92-1.49-4.08-.03-.04-.07-.08-.1-.12-.15-.19-.31-.37-.48-.55-.09-.09-.19-.17-.28-.25-.13-.12-.25-.24-.38-.34-.24-.19-.48-.36-.74-.52l-6.97-4.22v2.62c0,3.08-1.61,5.93-4.24,7.52l-8.13,4.92-3.9,2.36s-.03.02-.05.03c-1.24.74-2.61,1.13-4,1.21l7.77,4.7c1.15.7,2.45,1.05,3.75,1.05,1.3,0,2.6-.35,3.75-1.05l12.02-7.28c.27-.16.52-.34.76-.53.09-.07.2-.18.35-.32l.52.57-.52-.57c.14-.13.25-.22.32-.29Z"/>
  <path class="cls-1" d="m26.84,37.19l-3.05-1.85c-2.63-1.59-4.24-4.44-4.24-7.52v-13.5c0-.37.03-.72.07-1.07,0-.03,0-.06.01-.08.02-.12.04-.21.05-.28,0,0,0,0,0,0,.03-.21.07-.43.13-.66.04-.16.09-.31.12-.44,0,0,0,0,0,0s0,0,0,0c.05-.18.11-.36.18-.55,0,0,0-.01,0-.02.06-.15.12-.3.18-.44.01-.03.03-.05.04-.08l-7.77,4.7c-2.17,1.31-3.49,3.66-3.49,6.19v13.5c0,2.53,1.32,4.88,3.49,6.19l.26.16c1.08.6,2.28.9,3.48.9,1.3,0,2.61-.35,3.76-1.05l6.77-4.1Z"/>
</svg>