<?xml version="1.0" encoding="UTF-8"?>
<svg id="Capa_1" data-name="Capa 1" xmlns="http://www.w3.org/2000/svg" viewBox="0 0 56.69 56.69">
  <defs>
    <style>
      .cls-1 {
        fill: #71717a;
        fill-rule: evenodd;
      }
    </style>
  </defs>
  <path class="cls-1" d="m29.41,7.55c-.27-.3-.66-.46-1.06-.46-.4,0-.78.17-1.06.46l-7.55,8.13c-2.52,2.71-3.99,6.24-4.14,9.94-.14,3.7,1.05,7.33,3.36,10.22l7.95,9.99v3.76h2.87v-3.76l7.95-9.99c2.31-2.9,3.5-6.52,3.36-10.22-.15-3.7-1.61-7.23-4.14-9.94l-7.55-8.13h0Zm.38,8.04c0-.38-.15-.74-.42-1-.56-.56-1.47-.56-2.03,0-.27.26-.42.62-.42,1v21.26c0,.38.15.74.42,1,.56.56,1.47.56,2.03,0,.27-.26.42-.63.42-1V15.59Z"/>
</svg>