<?xml version="1.0" encoding="UTF-8"?>
<svg id="Capa_1" data-name="Capa 1" xmlns="http://www.w3.org/2000/svg" viewBox="0 0 56.69 56.69">
  <defs>
    <style>
      .cls-1 {
        fill: #71717a;
      }
    </style>
  </defs>
  <path class="cls-1" d="m28.35,49.49h0c-.6,0-1.17-.16-1.65-.44h.02s-5.24-3.07-5.24-3.07c-.78-.44-.4-.59-.14-.68.85-.26,1.66-.63,2.41-1.1l-.04.03c.13-.06.27-.05.39.03h0s4.02,2.37,4.02,2.37c.15.08.34.08.49,0h0s15.68-8.99,15.68-8.99c.15-.09.24-.25.24-.42v-17.98c0-.17-.09-.33-.24-.42h0s-15.67-8.99-15.67-8.99c-.15-.08-.33-.08-.48,0h0s-15.67,8.99-15.67,8.99c-.15.09-.25.25-.25.43v17.98c0,.18.1.33.24.41h0s4.3,2.47,4.3,2.47c2.33,1.16,3.76-.21,3.76-1.58v-17.76c0-.25.2-.45.45-.45h2c.25,0,.45.2.45.45v17.76c0,3.09-1.69,4.87-4.64,4.87h-.12c-1.24,0-2.46-.34-3.52-.99l-4.08-2.34c-.5-.29-.91-.7-1.2-1.2-.29-.5-.44-1.06-.44-1.64v-17.99c0-1.16.62-2.24,1.63-2.83h.02s15.68-9.01,15.68-9.01c1.03-.56,2.28-.56,3.31,0h-.02s15.68,9,15.68,9c1.01.58,1.64,1.66,1.65,2.83v17.98c0,.57-.15,1.14-.44,1.63-.29.5-.7.91-1.19,1.2h-.02s-15.68,9.01-15.68,9.01c-.5.29-1.07.44-1.64.44h-.01,0s0,0,0,0Z"/>
  <path class="cls-1" d="m33.19,37.1c-6.86,0-8.3-3.13-8.3-5.76h0c0-.25.2-.45.45-.45,0,0,0,0,0,0h2.03c.23,0,.41.17.45.38.31,2.05,1.22,3.09,5.37,3.09,3.3,0,4.71-.74,4.71-2.48,0-1-.4-1.75-5.53-2.25-4.29-.43-6.94-1.37-6.94-4.78,0-3.14,2.67-5.02,7.13-5.02,5.02,0,7.51,1.73,7.82,5.45v.04c0,.25-.2.45-.45.45,0,0,0,0,0,0h-2.02c-.21,0-.39-.15-.44-.35h0c-.49-2.16-1.68-2.85-4.9-2.85-3.61,0-4.03,1.25-4.03,2.18,0,1.13.5,1.46,5.37,2.1,4.82.63,7.11,1.53,7.11,4.89,0,3.4-2.85,5.35-7.82,5.35,0,0,0,0,0,0Z"/>
</svg>