<?xml version="1.0" encoding="UTF-8"?>
<svg id="Capa_1" data-name="Capa 1" xmlns="http://www.w3.org/2000/svg" viewBox="0 0 56.69 56.69">
  <defs>
    <style>
      .cls-1 {
        fill: #71717a;
      }
    </style>
  </defs>
  <path class="cls-1" d="m24.54,22c-.66-.27-1.36-.37-2.09-.35-.46,0-.87,0-1.2.02-.35-.02-.6,0-.73.02v5.95c.25.02.48.04.69.04h.94c.69,0,1.38-.11,2.04-.32.57-.16,1.06-.5,1.45-.94.37-.44.55-1.05.55-1.82.02-.55-.12-1.1-.41-1.58-.3-.46-.73-.82-1.24-1.01Z"/>
  <path class="cls-1" d="m42.08,7.62H14.62c-4.16,0-7.53,3.37-7.53,7.53v26.4c0,4.16,3.37,7.53,7.53,7.53h27.46c4.16,0,7.53-3.37,7.53-7.53V15.15c0-4.16-3.37-7.53-7.53-7.53Zm-13.09,20.64c-.71.99-1.7,1.74-2.85,2.16-1.2.44-2.53.6-3.99.6-.43,0-.71,0-.89-.02-.18-.02-.43-.02-.76-.02v5.69c.02.12-.07.23-.19.25h-3.44c-.14,0-.21-.07-.21-.23v-18.23c0-.12.05-.19.18-.19.3,0,.58,0,.99-.02.43-.02.87-.02,1.35-.04.48-.02.99-.02,1.54-.04.55-.02,1.08-.02,1.61-.02,1.45,0,2.66.18,3.65.55.89.3,1.7.8,2.37,1.45.57.57,1.01,1.26,1.29,2.02.27.74.41,1.51.41,2.3,0,1.52-.35,2.78-1.06,3.77Zm12.56,6.89c-.5.71-1.19,1.26-1.98,1.58-.87.37-1.93.57-3.21.57-.81,0-1.61-.07-2.41-.23-.62-.11-1.24-.3-1.81-.57-.12-.07-.21-.19-.19-.34v-3.08c0-.05.02-.12.07-.16.05-.04.11-.02.16.02.69.41,1.42.69,2.2.87.67.18,1.38.27,2.09.27s1.15-.09,1.47-.25c.28-.12.48-.43.48-.74,0-.25-.14-.48-.43-.71-.28-.23-.87-.5-1.74-.83-.9-.32-1.74-.74-2.52-1.28-.55-.39-1.01-.9-1.35-1.51-.28-.57-.43-1.19-.41-1.81,0-.76.21-1.49.6-2.14.44-.71,1.1-1.28,1.86-1.63.83-.43,1.88-.62,3.14-.62.73,0,1.47.05,2.2.16.53.07,1.05.21,1.52.41.07.02.14.09.18.16.02.07.04.14.04.21v2.89c0,.07-.04.14-.09.18-.16.04-.25.04-.32,0-.53-.28-1.1-.48-1.7-.6-.66-.14-1.31-.23-1.98-.23-.35-.02-.73.04-1.06.12-.23.05-.43.18-.55.35-.09.14-.14.32-.14.48s.07.32.18.46c.16.19.37.35.6.48.41.21.83.41,1.26.58.96.32,1.88.76,2.73,1.29.58.37,1.06.87,1.4,1.47.28.57.43,1.19.41,1.82.02.83-.23,1.67-.69,2.36Z"/>
</svg>