<?xml version="1.0" encoding="UTF-8"?>
<svg id="Capa_1" data-name="Capa 1" xmlns="http://www.w3.org/2000/svg" viewBox="0 0 56.69 56.69">
  <defs>
    <style>
      .cls-1 {
        fill: #71717a;
      }
    </style>
  </defs>
  <path class="cls-1" d="m31.05,7.14c-11.65-1.49-22.3,6.73-23.79,18.38-1.49,11.65,6.73,22.3,18.38,23.79,11.65,1.49,22.3-6.73,23.79-18.38,1.5-11.65-6.73-22.3-18.38-23.79h0Zm4.37,13.27c-.39,0-.77.16-1.05.44l-7.89,7.88-.55-.54-1.14-1.14c7.77-7.75,9.18-7.83,10.62-6.64,0,0,0,0,0,0Zm-8.61,8.61l7.86-7.87c.42-.44,1.12-.45,1.56-.03.12.12.21.26.27.41.16.43.02.92-.33,1.21l-8.33,7.31s-1.04-1.04-1.04-1.04Zm.58,1.23l-1.95.42s-.1-.02-.12-.06c-.02-.04-.01-.09.02-.13l1.14-1.14.91.91Zm-4.97-.82l2.08-2.08,1.56,1.56-3.51.75c-.06.02-.12-.01-.15-.07-.03-.05-.02-.12.02-.16Zm-6.46,10.73c-.07,0-.13-.07-.13-.14,0-.03.02-.06.04-.08h0l1.67-1.67,2.17,2.17-3.76-.26h0Zm4.3-2.23c-.16.09-.25.28-.21.46l.36,1.53c.06.22-.21.37-.37.21h0l-2.17-2.17,6.67-6.66,3.23-.7,1.54,1.55c-2.22,1.95-5.26,3.9-9.03,5.78h0Zm9.35-6.07l-1.49-1.49,8.33-7.31c.08-.07.14-.14.21-.22-.25,2.38-3.59,5.74-7.05,9.02Zm6.49-11.45h0c-2.9-2.91,1.2-7.39,4.35-4.76l-2.85,2.86c-.08.08-.08.22,0,.3l2.21,2.21c-1.24.61-2.73.37-3.7-.61h0Zm4.56,0c-.14.15-.31.27-.48.39l-2.14-2.14,2.71-2.72c1.17,1.27,1.13,3.25-.1,4.47h0Zm-.17-2.73c-.09.06-.13.17-.1.28.13.26.1.57-.09.8-.09.11-.07.26.03.35,0,0,0,0,0,0,.04.03.09.05.14.05.08,0,.15-.03.19-.08.31-.37.37-.9.16-1.34-.08-.11-.23-.14-.34-.06,0,0,0,0,0,0Z"/>
</svg>