<?xml version="1.0" encoding="UTF-8"?>
<svg id="Capa_1" data-name="Capa 1" xmlns="http://www.w3.org/2000/svg" viewBox="0 0 56.69 56.69">
  <defs>
    <style>
      .cls-1 {
        fill: #71717a;
      }
    </style>
  </defs>
  <path class="cls-1" d="m28.35,31.98c2.09,0,3.79-1.69,3.8-3.78,0,0,0,0,0,0,0-2.09-1.7-3.79-3.79-3.79,0,0,0,0,0,0-2.09,0-3.79,1.69-3.8,3.79h0c0,2.09,1.7,3.79,3.8,3.79h0,0Z"/>
  <path class="cls-1" d="m28.35,21.4c4.91,0,9.56.69,13.11,1.91,3.93,1.35,6.34,3.35,6.34,4.89,0,1.64-2.59,3.77-6.8,5.16-3.35,1.11-7.83,1.71-12.64,1.71-5.05,0-9.59-.59-12.9-1.72-2.07-.71-3.79-1.63-4.96-2.63-1.05-.9-1.59-1.8-1.59-2.52,0-1.55,2.31-3.51,6.16-4.85,3.55-1.23,8.32-1.94,13.29-1.94h0Zm0-1.81c-5.16,0-10.13.74-13.88,2.04-4.5,1.56-7.38,4.02-7.38,6.56s3.09,5.26,7.78,6.86c3.52,1.2,8.25,1.82,13.48,1.82s9.66-.63,13.21-1.8c4.87-1.61,8.05-4.21,8.05-6.88s-2.97-5.02-7.56-6.6c-3.74-1.29-8.6-2-13.7-2Zm-5.93,5.23c2.45-4.24,5.38-7.92,8.21-10.37,3.14-2.72,6.07-3.8,7.41-3.03,1.42.82,1.98,4.12,1.08,8.45-.71,3.45-2.43,7.62-4.83,11.78-2.52,4.36-5.3,7.98-7.94,10.28-1.65,1.44-3.3,2.46-4.76,2.97-1.31.46-2.35.47-2.98.11-1.34-.77-1.9-3.75-1.14-7.74.7-3.68,2.47-8.16,4.95-12.45m-1.57-.9c-2.58,4.46-4.42,9.12-5.16,13.01-.89,4.67-.19,8.38,2.01,9.65,2.29,1.32,6.11-.04,9.85-3.29,2.81-2.44,5.7-6.22,8.32-10.74,2.49-4.31,4.28-8.66,5.03-12.32,1.04-5.01.36-9.05-1.95-10.38-2.22-1.28-5.84.05-9.51,3.23-2.99,2.59-6.04,6.43-8.59,10.83h0Zm1.58,7.74c-2.46-4.23-4.19-8.6-4.91-12.26-.8-4.07-.27-7.15,1.07-7.92,1.42-.82,4.57.35,7.88,3.29,2.64,2.34,5.41,5.9,7.82,10.05,2.53,4.36,4.29,8.57,4.97,11.99.43,2.14.49,4.08.2,5.6-.25,1.36-.76,2.27-1.39,2.63-1.34.77-4.21-.23-7.3-2.89-2.84-2.44-5.85-6.2-8.34-10.49m-1.57.91c2.59,4.45,5.72,8.38,8.73,10.96,3.61,3.1,7.18,4.35,9.39,3.08,2.28-1.32,3.02-5.3,2.06-10.15-.72-3.64-2.55-8.03-5.18-12.55-2.5-4.31-5.39-8.02-8.18-10.5-3.84-3.4-7.69-4.83-10-3.5-2.22,1.28-2.87,5.08-1.94,9.83.76,3.88,2.57,8.43,5.12,12.83"/>
</svg>