<?xml version="1.0" encoding="UTF-8"?>
<svg id="Capa_1" data-name="Capa 1" xmlns="http://www.w3.org/2000/svg" viewBox="0 0 56.69 56.69">
  <defs>
    <style>
      .cls-1 {
        fill: #71717a;
      }
    </style>
  </defs>
  <path class="cls-1" d="m22.23,8.69l-3.04,3.09v3.03h3.04v-6.12Zm0,6.12v.06h-3.04v-.06h-6.11l-6,5.93v6.44h5.01v-4.47c0-.94.76-1.72,1.69-1.72h29.19c.93,0,1.69.77,1.69,1.72v4.47h4.88v-6.44l-6-5.93h-5.81v.06h-3.04v-.06s-12.46,0-12.46,0Zm12.46,0h3.04v-3.03l-3.04-3.09s0,6.12,0,6.12Zm-12.23-6.06v2.98h12v-2.98h-12Zm-7,13.88c.32,0,.63.13.86.37.23.24.36.56.36.89s-.13.65-.36.89c-.23.23-.54.37-.86.37s-.63-.13-.86-.37c-.23-.24-.36-.56-.36-.89,0-.33.13-.65.36-.89.23-.24.54-.37.86-.37h0Zm3.78,0c.32,0,.63.13.86.37.23.24.36.56.36.89s-.13.65-.36.89c-.23.23-.54.37-.86.37s-.63-.13-.86-.37c-.23-.24-.36-.56-.36-.89,0-.33.13-.65.36-.89.23-.24.54-.37.86-.37h0Zm-12.1,4.96v16.49c0,1.89,1.52,3.44,3.38,3.44h1.56v-19.93h-4.94Zm37.51,0v19.93h1.56c1.86,0,3.38-1.55,3.38-3.44v-16.5h-4.94Zm-30.39,2.68v12.34h10.87v-12.34s-10.87,0-10.87,0Zm23.46.04v6.8l-3.03,1.76-3.03-1.76v-6.77c-1.21.59-2.24,1.51-2.95,2.66-.72,1.16-1.09,2.49-1.09,3.85,0,1.36.38,2.7,1.09,3.85.71,1.15,1.73,2.07,2.95,2.66v4.4h6.13v-4.4c1.22-.59,2.24-1.52,2.95-2.68.72-1.16,1.09-2.51,1.08-3.87,0-1.37-.4-2.7-1.13-3.86-.72-1.15-1.76-2.07-2.98-2.65Zm-23.46,14.88v2.57h14.04v-2.58h-14.04Z"/>
</svg>