<?xml version="1.0" encoding="UTF-8"?>
<svg id="Capa_1" data-name="Capa 1" xmlns="http://www.w3.org/2000/svg" viewBox="0 0 60 60">
  <defs>
    <style>
      .cls-1 {
        fill: #71717a;
      }
    </style>
  </defs>
  <path class="cls-1" d="m49.22,26.6h0l-15.78-15.78c-1.09-1.09-2.56-1.67-4.01-1.67-1.17,0-2.33.37-3.28,1.16-.23.19-.41.4-.6.61.07-.08.13-.17.21-.25l-15.93,15.93c-2.08,2.07-2.08,5.44,0,7.51,0,0,0,0,0,0l15.66,15.66s.02-.02.03-.03c.23.27.48.52.76.74.02.02.04.04.06.05.14.11.28.21.43.3.18.11.37.21.56.3.1.05.21.09.31.13.25.1.5.18.76.24.05.01.11.02.16.03.31.06.63.1.95.1h0c.32,0,.64-.04.94-.1.06-.01.13-.02.19-.04.27-.06.53-.14.78-.24.1-.04.2-.09.3-.13.16-.08.32-.16.48-.26.19-.11.37-.24.54-.37.07-.05.13-.11.2-.16.27-.24.52-.49.74-.78,0,0,0,0,0,0l15.47-15.38.06-.05c2.08-2.08,2.08-5.44,0-7.52Zm-19.7-4.66l8.44,8.44-8.45,8.53-8.43-8.54,8.43-8.43Zm3.37,26.83l-.04.04-.05.06c-.19.25-.41.47-.64.67-.02.02-.04.04-.06.05-.21.17-.43.31-.66.43-.05.03-.1.06-.15.08-.22.1-.44.18-.67.24-.07.02-.13.05-.19.06-.29.07-.59.11-.9.11-1.72,0-3.2-1.05-3.83-2.54-.21-.5-.33-1.04-.33-1.62,0-.29.03-.57.09-.85,0-.03.02-.05.02-.08.06-.25.13-.5.24-.73,0,0,0,0,0,0,.23-.51.57-.98,1-1.38l.02-.02h0c.74-.67,1.71-1.09,2.78-1.09,2.29,0,4.16,1.86,4.16,4.16,0,.9-.3,1.73-.79,2.41Zm15.57-15.47l-.06.05-.03.03-13.65,13.56c.02-.2.06-.39.06-.59,0-1.59-.72-3-1.84-3.97l-2.65-2.69,8.46-8.54.78-.79-.78-.78-12.2-12.2c-.84-.83-1.28-1.99-1.23-3.17.06-1.2.6-2.28,1.54-3.05.72-.59,1.61-.91,2.57-.91,1.2,0,2.37.49,3.23,1.35l15.78,15.78.12.12c.72.78,1.12,1.78,1.12,2.85,0,1.12-.44,2.18-1.2,2.95Z"/>
</svg>