<?xml version="1.0" encoding="UTF-8"?>
<svg id="Capa_1" data-name="Capa 1" xmlns="http://www.w3.org/2000/svg" viewBox="0 0 56.69 56.69">
  <defs>
    <style>
      .cls-1 {
        fill: #71717a;
      }
    </style>
  </defs>
  <path class="cls-1" d="m28.35,15.47c-5.68,0-9.21,2.83-10.63,8.5,2.13-2.83,4.61-3.89,7.44-3.19,1.62.4,2.79,1.57,4.06,2.87,2.08,2.13,4.44,4.57,9.76,4.57,5.68,0,9.21-2.83,10.63-8.5-2.13,2.83-4.61,3.89-7.44,3.19-1.62-.4-2.76-1.57-4.06-2.87-2.08-2.13-4.44-4.57-9.76-4.57h0Zm-10.63,12.76c-5.68,0-9.21,2.83-10.63,8.5,2.13-2.83,4.61-3.89,7.44-3.19,1.62.4,2.76,1.57,4.06,2.87,2.08,2.13,4.44,4.57,9.76,4.57,5.68,0,9.21-2.83,10.63-8.5-2.13,2.83-4.61,3.89-7.44,3.19-1.62-.4-2.76-1.57-4.06-2.87-2.08-2.13-4.44-4.57-9.76-4.57Z"/>
</svg>