<?xml version="1.0" encoding="UTF-8"?>
<svg id="Capa_1" data-name="Capa 1" xmlns="http://www.w3.org/2000/svg" viewBox="0 0 56.69 56.69">
  <defs>
    <style>
      .cls-1 {
        fill: #71717a;
        fill-rule: evenodd;
      }
    </style>
  </defs>
  <path class="cls-1" d="m11.24,6.97h34.21c2.29,0,4.15,1.86,4.15,4.15v34.21c0,2.29-1.86,4.15-4.15,4.15H11.24c-2.29,0-4.15-1.86-4.15-4.15V11.12c0-2.29,1.86-4.15,4.15-4.15h0Zm22.17,37.99v-4.16c1.43,1.22,3.25,1.89,5.13,1.9.53,0,.99-.05,1.38-.14.39-.09.72-.23.99-.4.26-.17.46-.37.59-.6.13-.23.19-.48.19-.75,0-.36-.1-.69-.31-.97-.24-.31-.52-.58-.85-.79-.41-.27-.84-.5-1.28-.7-.49-.22-1.03-.45-1.6-.69-1.46-.61-2.54-1.35-3.26-2.22-.71-.88-1.07-1.93-1.07-3.17,0-.97.19-1.8.58-2.5s.92-1.27,1.59-1.72c.71-.47,1.5-.8,2.33-.99.88-.21,1.82-.32,2.81-.32s1.83.06,2.58.18c.75.12,1.44.3,2.07.54v3.89c-.32-.22-.66-.41-1.02-.57-.37-.16-.75-.3-1.14-.41-.74-.21-1.5-.31-2.26-.32-.48,0-.91.05-1.3.14-.39.09-.72.22-.99.38-.27.17-.48.36-.62.59-.15.23-.22.5-.22.77,0,.31.08.59.25.84.16.25.4.48.7.7.3.22.67.44,1.11.65.43.21.92.43,1.47.66.75.31,1.41.64,2.01.99.59.35,1.1.75,1.53,1.19.43.44.75.95.98,1.51.22.57.34,1.23.34,1.98,0,1.04-.2,1.91-.59,2.62-.39.7-.94,1.29-1.61,1.71-.68.44-1.46.75-2.36.94-.9.19-1.84.29-2.84.29s-1.99-.09-2.92-.26-1.72-.43-2.4-.78Zm-1.66-14.4h-5.33v15.19h-4.22v-15.19h-5.31v-3.41h14.87v3.41h0Z"/>
</svg>