<?xml version="1.0" encoding="UTF-8"?>
<svg id="Capa_1" data-name="Capa 1" xmlns="http://www.w3.org/2000/svg" viewBox="0 0 56.69 56.69">
  <defs>
    <style>
      .cls-1 {
        fill: #71717a;
      }
    </style>
  </defs>
  <path class="cls-1" d="m28.35,6.97c-11.71,0-21.26,9.55-21.26,21.26s9.55,21.26,21.26,21.26,21.26-9.55,21.26-21.26S40.06,6.97,28.35,6.97ZM9.23,28.23c0-2.76.59-5.4,1.66-7.78l9.12,24.98c-6.38-3.1-10.78-9.63-10.78-17.2Zm19.11,19.11c-1.87,0-3.68-.28-5.4-.79l5.74-16.67,5.87,16.09c.04.09.09.19.13.26-2.03.74-4.18,1.11-6.34,1.1Zm2.64-28.08c.73-.04,1.46-.11,2.19-.19,1.02-.13.91-1.64-.13-1.57,0,0-3.1.23-5.1.23-1.87,0-5.04-.23-5.04-.23-1.02-.04-1.15,1.53-.11,1.59,0,0,.98.13,2,.19l2.98,8.16-4.19,12.54-6.95-20.73c1.15-.04,2.19-.17,2.19-.17,1.02-.13.91-1.64-.13-1.57,0,0-3.1.23-5.1.23-.36,0-.79,0-1.23-.02,3.44-5.19,9.31-8.61,15.99-8.61,4.78-.01,9.39,1.78,12.9,5.02-.09,0-.17-.02-.26-.02-1.87,0-3.21,1.64-3.21,3.4,0,1.57.91,2.91,1.87,4.49.72,1.27,1.57,2.91,1.57,5.27,0,1.64-.64,3.53-1.44,6.19l-1.91,6.38-6.89-20.58h0Zm14.14-.19c4.97,9.09,1.79,20.48-7.17,25.68l5.85-16.88c1.08-2.72,1.45-4.91,1.45-6.84,0-.7-.04-1.36-.13-1.96h0Z"/>
</svg>