<svg width="16" height="17" viewBox="0 0 16 17" fill="#d4d4d8" xmlns="http://www.w3.org/2000/svg">
  <path
    d="M3.20001 4.2498H0.624005C0.328005 4.2498 0.032005 4.5218 0.072005 4.9638L1.32001 13.4553C1.32001 13.4553 2.8 7.1993 3.088 5.6948C3.176 5.2443 3.57601 5.0998 3.87201 5.0998H8.00001C8.00001 5.0998 7.44001 3.3318 7.38401 3.1363C7.288 2.7623 7.11201 2.5498 6.76001 2.5498H4.112C3.824 2.5498 3.55201 2.7453 3.47201 3.0938C3.40001 3.4338 3.20001 4.2498 3.20001 4.2498ZM7.10401 4.2498H3.90401C3.90401 4.2498 4.24001 3.3998 4.60001 3.3998H6.30401C6.688 3.3998 7.10401 4.2498 7.10401 4.2498ZM2.13601 13.8123C1.88801 14.2118 1.52801 14.4498 1.12801 14.4498H13.712C14.144 14.4498 14.448 14.1863 14.536 13.7443C14.888 11.8828 15.88 6.5703 15.88 6.5703C15.936 6.1453 15.64 5.9498 15.384 5.9498H12.8V4.7003C12.8 4.5643 12.592 4.2498 12.272 4.2498H9.26401C8.84801 4.2498 8.56801 4.7428 8.56801 4.7428L8.00001 5.9498H4.47201C4.21601 5.9498 3.96801 6.1113 3.92001 6.3748C3.92001 6.3748 2.64801 12.0698 2.54401 12.6053C2.48801 12.9198 2.36801 13.4468 2.13601 13.8123ZM12.304 5.9498H8.80001C8.80001 5.9498 9.26401 5.0998 9.70401 5.0998H11.536C12.104 5.0998 12.304 5.9498 12.304 5.9498Z" />
</svg>